<svg xmlns="http://www.w3.org/2000/svg" viewBox="0 0 31.86 31.86"><defs><style>.cls-1{fill:#39ac56;}</style></defs><g id="Layer_2" data-name="Layer 2"><g id="Layer_1-2" data-name="Layer 1"><g id="_002-instagram" data-name=" 002-instagram"><path id="Path_461" data-name="Path 461" class="cls-1" d="M31.77,9.37A11.41,11.41,0,0,0,31,5.5,8.13,8.13,0,0,0,26.37.84,11.8,11.8,0,0,0,22.51.1C20.8,0,20.26,0,15.93,0S11.07,0,9.37.09A11.91,11.91,0,0,0,5.5.83,7.69,7.69,0,0,0,2.68,2.68,7.79,7.79,0,0,0,.84,5.5,11.85,11.85,0,0,0,.1,9.36C0,11.07,0,11.61,0,15.93S0,20.8.09,22.5a11.8,11.8,0,0,0,.74,3.86A8.17,8.17,0,0,0,5.5,31a11.8,11.8,0,0,0,3.86.74c1.7.07,2.24.09,6.57.09s4.87,0,6.57-.09A11.85,11.85,0,0,0,26.36,31,8.15,8.15,0,0,0,31,26.36a11.31,11.31,0,0,0,.74-3.86c.08-1.7.1-2.24.1-6.57S31.85,11.07,31.77,9.37Zm-2.86,13a8.71,8.71,0,0,1-.55,2.95,5.32,5.32,0,0,1-3,3,8.71,8.71,0,0,1-2.95.55c-1.69.07-2.19.09-6.44.09s-4.76,0-6.44-.09a8.81,8.81,0,0,1-2.95-.55,5,5,0,0,1-1.83-1.19,5,5,0,0,1-1.19-1.83,8.82,8.82,0,0,1-.55-3C2.91,20.7,2.89,20.2,2.89,16s0-4.77.09-6.44a8.82,8.82,0,0,1,.55-3,5,5,0,0,1,1.2-1.83A4.89,4.89,0,0,1,6.55,3.54a8.58,8.58,0,0,1,3-.55c1.68-.08,2.19-.1,6.44-.1s4.76,0,6.43.1a8.58,8.58,0,0,1,3,.55,4.93,4.93,0,0,1,1.83,1.18,5,5,0,0,1,1.19,1.83,8.82,8.82,0,0,1,.55,3C29,11.19,29,11.7,29,16S29,20.7,28.91,22.38Z"/><path id="Path_462" data-name="Path 462" class="cls-1" d="M15.93,7.75a8.19,8.19,0,1,0,8.19,8.18h0A8.19,8.19,0,0,0,15.93,7.75Zm0,13.49a5.31,5.31,0,1,1,5.31-5.31A5.3,5.3,0,0,1,15.93,21.24Z"/><path id="Path_463" data-name="Path 463" class="cls-1" d="M26.35,7.43a1.91,1.91,0,0,1-3.82,0,1.91,1.91,0,0,1,3.82,0Z"/></g></g></g></svg>