<svg xmlns="http://www.w3.org/2000/svg" viewBox="0 0 39.22 31.86"><defs><style>.cls-1{fill:#39ac56;}</style></defs><g id="Layer_2" data-name="Layer 2"><g id="Layer_1-2" data-name="Layer 1"><g id="_003-twitter" data-name=" 003-twitter"><g id="Group_562" data-name="Group 562"><path id="Path_464" data-name="Path 464" class="cls-1" d="M39.22,3.77A17,17,0,0,1,34.58,5,8,8,0,0,0,38.12.6,16.12,16.12,0,0,1,33,2.54,8,8,0,0,0,19.11,8a8.71,8.71,0,0,0,.19,1.84A22.74,22.74,0,0,1,2.73,1.46,8,8,0,0,0,5.2,12.21a8.08,8.08,0,0,1-3.63-1v.09A8.08,8.08,0,0,0,8,19.21a7.92,7.92,0,0,1-2.11.26,7.05,7.05,0,0,1-1.52-.14,8.1,8.1,0,0,0,7.51,5.6,16.07,16.07,0,0,1-10,3.43A13.74,13.74,0,0,1,0,28.25a22.67,22.67,0,0,0,12.33,3.61c14.8,0,22.89-12.25,22.89-22.88,0-.35,0-.7,0-1A16.14,16.14,0,0,0,39.22,3.77Z"/></g></g></g></g></svg>