<svg xmlns="http://www.w3.org/2000/svg" viewBox="0 0 46.84 57.65"><defs><style>.cls-1{fill:#fff;}</style></defs><g id="Layer_2" data-name="Layer 2"><g id="Layer_1-2" data-name="Layer 1"><path class="cls-1" d="M42.33,7.21h-9.9V5.4A5.41,5.41,0,0,0,27,0h-7.2a5.41,5.41,0,0,0-5.41,5.4V7.21H4.5A4.51,4.51,0,0,0,0,11.71V18a1.81,1.81,0,0,0,1.8,1.81h1L4.34,52.5a5.4,5.4,0,0,0,5.4,5.15H37.1a5.4,5.4,0,0,0,5.4-5.15l1.55-32.68h1A1.81,1.81,0,0,0,46.84,18v-6.3a4.51,4.51,0,0,0-4.51-4.5ZM18,5.4a1.81,1.81,0,0,1,1.81-1.8H27a1.8,1.8,0,0,1,1.8,1.8V7.21H18ZM3.6,11.71a.9.9,0,0,1,.9-.9H42.33a.9.9,0,0,1,.91.9v4.5H3.6ZM38.9,52.33A1.8,1.8,0,0,1,37.1,54H9.74a1.8,1.8,0,0,1-1.8-1.71L6.39,19.82H40.45Z"/><path class="cls-1" d="M23.42,50.44a1.81,1.81,0,0,0,1.8-1.8V25.22a1.8,1.8,0,0,0-3.6,0V48.64A1.8,1.8,0,0,0,23.42,50.44Z"/><path class="cls-1" d="M32.43,50.44a1.81,1.81,0,0,0,1.8-1.8V25.22a1.8,1.8,0,1,0-3.6,0V48.64A1.8,1.8,0,0,0,32.43,50.44Z"/><path class="cls-1" d="M14.41,50.44a1.8,1.8,0,0,0,1.8-1.8V25.22a1.8,1.8,0,0,0-3.6,0V48.64A1.81,1.81,0,0,0,14.41,50.44Z"/></g></g></svg>