<svg xmlns="http://www.w3.org/2000/svg" width="1920" height="1080" viewBox="0 0 1440 810"><clipPath id="a"><path transform="scale(.24)" d="M0 0h6000v3406.25H0z" fill-rule="evenodd"/></clipPath><g clip-path="url(#a)" fill="#fff"><path d="M0 0h1440v817.5H0z"/><path d="M0 0h1440v810H0z"/></g><clipPath id="b"><path transform="scale(.24)" d="M0 0h6000v3375H0z" fill-rule="evenodd"/></clipPath><g clip-path="url(#b)"><path d="M0 0h1440v810H0z" fill="#fff"/></g><clipPath id="c"><path transform="scale(.24)" d="M1172.982 39.95H4775.75v3333.685H1172.982z" fill-rule="evenodd"/></clipPath><g clip-path="url(#c)"><path d="M1045.794 635.207l-32.167-48.39h-12.416c-12.59 16.803-25.875 33.003-39.733 48.39h84.316zM412.01 90.885c0 .74.065 1.472.166 2.183a372.462 372.462 0 0124.789-15.446 15.916 15.916 0 00-8.959-2.748c-8.82 0-15.996 7.179-15.996 16.01zm733.786 573.249h-37.299l16.888 145.538h-27.093l-16.895-145.538h-95.522l-16.888 145.538h-27.1l16.894-145.538h-25.006c-72.248 70.782-156.818 118.49-239.714 118.49-37.052 0-73.757-7.222-109.113-20.232l5.494 47.28h-27.1l-6.864-59.136c-38.219-17.773-74.43-42.204-107.286-71.42l-15.155 130.556h-27.094l16.888-145.538h-35.247v-28.927h16.888c-75.025-84.908-123.956-195.233-123.956-299.88 0-97.591 42.553-173.196 109.141-226.386a40.827 40.827 0 01-2.754-7.41l-12.184-2.684V82.923l12.184-2.683a41.472 41.472 0 014.218-10.203l-6.719-10.515 11.264-11.262 10.51 6.723a40.829 40.829 0 0110.19-4.22l2.682-12.198h15.924l2.674 12.197a40.878 40.878 0 0110.198 4.22l10.51-6.722 11.256 11.262-.819 1.284a446.734 446.734 0 0118.447-7.94v-14.3h40.668c32.733-9.892 67.27-16.68 102.676-20.334-.036-.305-.094-.602-.094-.921 0-3.699 3.015-6.708 6.712-6.708 3.595 0 6.509 2.843 6.675 6.396a611.911 611.911 0 0149.186-1.972c211.86 0 434.694 32.03 434.694 244 0 97.83-47.474 216.893-119.426 316.754h56.23l39.503 59.426h40.734v28.927zM380.328 24.026c3.697 0 6.705-3.01 6.705-6.715 0-3.699-3.008-6.708-6.705-6.708a6.716 6.716 0 00-6.711 6.708 6.717 6.717 0 006.711 6.715zM895.26 17.31c0-3.699 3.016-6.708 6.712-6.708a6.716 6.716 0 016.712 6.708 6.717 6.717 0 01-6.712 6.715c-3.696 0-6.712-3.01-6.712-6.715" fill="#f6836b"/></g><clipPath id="d"><path transform="scale(.24)" d="M1474.502 39.95h3270.322v3333.685H1474.502z" fill-rule="evenodd"/></clipPath><g clip-path="url(#d)"><path d="M883.59 22.17a4.856 4.856 0 100-9.707 4.856 4.856 0 000 9.706zm109.815 145.35h22.6v-5.57h-22.6v5.57zm-8.77-75.156L953.838 73.96v36.816l30.797-18.412zm76.953 50.834H876.886V46.672h184.702v96.526zm-35.748 12.56h-15.735v5.568h15.735v-5.569zm-32.435 0v5.568h15.736v-5.569h-15.736zm32.435-6.186h-32.435v5.569h32.435v-5.57zm-519.374 18.26h-18.88v1.855h18.88v-1.856zm9.836-4.337v-1.857h-12.017v1.857h12.017zm-16.7-1.857h-12.017v1.857h12.017v-1.857zm16.7-6.185h-28.717v1.856h28.717v-1.856zM387.997 167.83h-18.881v1.856h18.88v-1.856zm9.836-4.336v-1.857h-12.018v1.857h12.018zm-16.7-1.857h-12.017v1.857h12.017v-1.857zm16.7-6.185h-28.717v1.856h28.717v-1.856zm125.29-45.264h-33.03v11.566h33.03v-11.566zm0-50.457h-33.03v11.56h33.03v-11.56zM361.946 22.17a4.856 4.856 0 000-9.71 4.856 4.856 0 100 9.71zm38.43 68.716c0 15.243 12.394 27.643 27.63 27.643 15.242 0 27.636-12.4 27.636-27.643s-12.394-27.65-27.637-27.65c-15.235 0-27.63 12.407-27.63 27.65zm-1.856 0c0-16.273 13.228-29.507 29.485-29.507 16.265 0 29.493 13.234 29.493 29.507 0 16.265-13.228 29.5-29.493 29.5-16.257 0-29.485-13.235-29.485-29.5zM750.603 257.43c-1.515 0-2.9 1.233-3.088 2.748-.196 1.516.884 2.742 2.4 2.742 1.514 0 2.898-1.226 3.087-2.742.188-1.515-.885-2.748-2.4-2.748zm78.764.885h-27.63a1.86 1.86 0 00-1.855 1.856c0 1.03.834 1.857 1.856 1.857h27.63a1.855 1.855 0 001.855-1.857 1.86 1.86 0 00-1.856-1.856zM619.82 24.026c3.696 0 6.711-3.01 6.711-6.715 0-3.699-3.015-6.708-6.711-6.708-3.697 0-6.705 3.01-6.705 6.708 0 3.705 3.008 6.715 6.705 6.715zm50.04 124.871a5.322 5.322 0 005.313 5.316h40.183a5.322 5.322 0 005.313-5.316 5.316 5.316 0 00-5.313-5.308h-40.183a5.316 5.316 0 00-5.313 5.308zm-36.747-26.99h40.19a5.317 5.317 0 005.313-5.315 5.316 5.316 0 00-5.313-5.308h-40.19a5.316 5.316 0 00-5.313 5.308 5.317 5.317 0 005.313 5.315zm0-32.306h69.632c2.928 0 5.305-2.385 5.305-5.315a5.31 5.31 0 00-5.305-5.308h-69.632a5.316 5.316 0 00-5.313 5.308 5.322 5.322 0 005.313 5.315zm83.055 32.306h14.214a5.31 5.31 0 005.305-5.315 5.31 5.31 0 00-5.305-5.308h-14.214a5.316 5.316 0 00-5.313 5.308 5.317 5.317 0 005.313 5.315zm-14.489 0a5.317 5.317 0 005.313-5.315 5.316 5.316 0 00-5.313-5.308h-14.206a5.316 5.316 0 00-5.313 5.308 5.317 5.317 0 005.313 5.315h14.206zm-68.566-48.455h14.213a5.322 5.322 0 005.313-5.315 5.322 5.322 0 00-5.313-5.316h-14.213a5.322 5.322 0 00-5.313 5.316 5.322 5.322 0 005.313 5.315zm0-16.156h47.859a5.316 5.316 0 005.312-5.308 5.322 5.322 0 00-5.312-5.316h-47.86a5.322 5.322 0 00-5.312 5.316 5.316 5.316 0 005.313 5.308zm103.357 701.993H398.746c-13.91 0-25.187 11.276-25.187 25.192 0 13.915 11.278 25.191 25.187 25.191h337.723c13.909 0 25.18-11.276 25.18-25.191 0-13.916-11.271-25.192-25.18-25.192zm389.634-526.332a1.86 1.86 0 00-1.856-1.856h-91.231c-1.03 0-1.856.834-1.856 1.856a1.85 1.85 0 001.856 1.857h91.231a1.855 1.855 0 001.856-1.857zm-42.865 29.072h15.64a1.855 1.855 0 001.856-1.857 1.86 1.86 0 00-1.855-1.856h-15.641a1.86 1.86 0 00-1.856 1.856c0 1.03.834 1.857 1.856 1.857zm36.784 10.275a1.86 1.86 0 00-1.856-1.856h-36.45a1.86 1.86 0 00-1.856 1.856 1.86 1.86 0 001.856 1.856h36.45a1.86 1.86 0 001.856-1.856zm-39.829 13.988h18.715c1.03 0 1.855-.834 1.855-1.856a1.85 1.85 0 00-1.855-1.857h-18.715a1.855 1.855 0 00-1.855 1.857 1.86 1.86 0 001.855 1.856zm-10.966 77.389a1.85 1.85 0 00-1.855 1.856c0 1.023.826 1.857 1.855 1.857h15.634a1.86 1.86 0 001.856-1.857c0-1.03-.834-1.856-1.856-1.856h-15.634zm36.777 13.98a1.86 1.86 0 00-1.856-1.856h-36.45a1.86 1.86 0 00-1.856 1.857c0 1.03.834 1.856 1.856 1.856h36.45a1.855 1.855 0 001.856-1.856zm-19.258 12.133a1.85 1.85 0 00-1.856-1.857h-18.714a1.855 1.855 0 00-1.856 1.857 1.86 1.86 0 001.856 1.856h18.714c1.03 0 1.856-.834 1.856-1.856zm-39.937-116.09a1.855 1.855 0 00-1.856-1.857h-31.26c-1.03 0-1.856.834-1.856 1.857a1.85 1.85 0 001.856 1.856h31.26a1.85 1.85 0 001.856-1.856zm-15.656 24.263a1.85 1.85 0 00-1.855-1.856h-27.318a1.855 1.855 0 00-1.856 1.856 1.86 1.86 0 001.856 1.857h27.318c1.029 0 1.855-.834 1.855-1.857zm-6.53 152.355a1.855 1.855 0 00-1.856-1.856h-49.185a1.86 1.86 0 00-1.856 1.856 1.86 1.86 0 001.856 1.857h49.185c1.03 0 1.856-.834 1.856-1.857zm-139.54-203.674H749.421c-5.124 0-9.8 4.155-10.444 9.282l-2.233 17.774h154.217l2.233-17.774c.645-5.127-2.987-9.282-8.11-9.282zm-15.547 139.556c0-1.03-.834-1.856-1.856-1.856h-16.554a1.855 1.855 0 00-1.856 1.856 1.86 1.86 0 001.856 1.856h16.554a1.86 1.86 0 001.856-1.856zm-39.93 8.912c0-1.03-.833-1.856-1.855-1.856h-15.504a1.855 1.855 0 00-1.855 1.856 1.86 1.86 0 001.855 1.857h15.504a1.86 1.86 0 001.855-1.857zm-32.087-8.912c0-1.03-.833-1.856-1.855-1.856h-16.555a1.85 1.85 0 00-1.855 1.856c0 1.022.826 1.856 1.855 1.856h16.555a1.86 1.86 0 001.855-1.856zm-45.083 71.74h-14.133c-1.95 0-3.726 1.58-3.972 3.531-.24 1.943 1.138 3.524 3.087 3.524h14.134c1.943 0 3.726-1.58 3.972-3.524.24-1.95-1.138-3.531-3.088-3.531zm-14.51-24.17c1.515 0 2.892-1.233 3.087-2.748.189-1.516-.884-2.749-2.399-2.749-1.514 0-2.899 1.233-3.087 2.749-.196 1.515.884 2.748 2.399 2.748zm-1.624-38.658c0 1.023.827 1.857 1.856 1.857h11.386a1.86 1.86 0 001.856-1.857c0-1.03-.834-1.856-1.856-1.856h-11.386a1.85 1.85 0 00-1.856 1.856zm72.85-97.149a1.85 1.85 0 00-1.855-1.856h-35.044a1.855 1.855 0 00-1.856 1.856 1.86 1.86 0 001.856 1.857h35.044c1.03 0 1.855-.834 1.855-1.857zm118.73 200.868a1.85 1.85 0 001.856 1.856h70.952a1.85 1.85 0 001.855-1.856 1.855 1.855 0 00-1.855-1.856h-70.952c-1.029 0-1.855.834-1.855 1.856zm16.092-128.099a1.86 1.86 0 001.855 1.857h18.715a1.86 1.86 0 001.855-1.857c0-1.03-.834-1.856-1.855-1.856h-18.715a1.855 1.855 0 00-1.855 1.856zm6.095-48.512a1.86 1.86 0 001.856 1.856h22.548c1.03 0 1.856-.834 1.856-1.856a1.85 1.85 0 00-1.856-1.857h-22.548a1.855 1.855 0 00-1.856 1.857zm4.566-36.389a1.86 1.86 0 001.856 1.857h15.634c1.03 0 1.855-.834 1.855-1.857a1.855 1.855 0 00-1.855-1.856H956.49a1.86 1.86 0 00-1.856 1.856zm62.13 36.389c0-1.03-.833-1.857-1.855-1.857h-32.326a1.855 1.855 0 00-1.856 1.857 1.86 1.86 0 001.856 1.856h32.326a1.86 1.86 0 001.856-1.856zm4.915 38.237a1.85 1.85 0 001.855-1.856 1.855 1.855 0 00-1.855-1.857h-27.318a1.86 1.86 0 00-1.856 1.857c0 1.03.834 1.856 1.856 1.856h27.318zm116.259-121.311L1109.2 498.501a15.09 15.09 0 01-15.01 13.438H691.74c-4.356 0-8.35-1.784-11.249-5.026a15.11 15.11 0 01-1.522-2.045c-4.182 29.71-24.208 63.234-24.208 89.376 0 28.708 21.874 69.89 21.874 69.89s-7.762 64.285-86.563 64.285c-28.485 0-48.591-4.996-58.934-8.376-5.371-1.755-9.328-6.272-10.539-11.79-9.161-41.603-2.95-100.667 3.508-121.435 4.37-14.039-.768-85.945-17.62-137.206-8.603-26.15 10.865-53.06 38.379-53.06l6.516-20.747s20.722-10.021 42.618-5.569c21.897 4.46 32.355 10.479 40.517 11.624l-5.291 14.808c9.03.79 17.105 6.171 21.237 14.373 8.907 17.708 23.077 48.128 27.723 70.985l27.282-246.204a15.085 15.085 0 0115.01-13.445h402.449c4.349 0 8.35 1.791 11.249 5.033 2.906 3.241 4.24 7.41 3.762 11.74zm-376.95 18.281c-1.507 0-2.892 1.233-3.088 2.748-.188 1.516.885 2.742 2.4 2.742 1.514 0 2.899-1.226 3.087-2.742.196-1.515-.877-2.748-2.399-2.748zm10.394 0c-1.515 0-2.9 1.233-3.088 2.748-.188 1.516.884 2.742 2.4 2.742 1.514 0 2.898-1.226 3.087-2.742.188-1.515-.884-2.748-2.4-2.748zm-284.385-8.477h-22.092v48.201h22.092v-48.2zm-77.51 48.201h22.091v-41.522h-22.092v41.522zm-33.327 0h-22.092v-27.04h22.092v27.04" fill="#5ec9cc"/></g><clipPath id="e"><path transform="scale(.24)" d="M1172.982 0H4825.23v3375H1172.982z" fill-rule="evenodd"/></clipPath><g clip-path="url(#e)"><path d="M428.006 108.753c9.865 0 17.86-7.999 17.86-17.868 0-9.87-7.995-17.868-17.86-17.868-9.857 0-17.852 7.999-17.852 17.868 0 9.87 7.995 17.868 17.852 17.868zM375.472 17.31a4.851 4.851 0 109.705 0 4.85 4.85 0 00-4.849-4.852 4.856 4.856 0 00-4.856 4.852zm12.3 42.472l6.538 10.225a39.306 39.306 0 00-4.885 11.798l-11.85 2.603v12.944l11.85 2.61a39.306 39.306 0 004.885 11.8l-6.538 10.224 9.147 9.151 10.227-6.533a39.397 39.397 0 0011.786 4.88l2.609 11.856h12.938l2.609-11.856a39.475 39.475 0 0011.785-4.88l10.227 6.533 9.147-9.151-6.537-10.225a39.493 39.493 0 004.885-11.798l11.85-2.61V84.408l-11.85-2.603a39.493 39.493 0 00-4.885-11.798l6.537-10.225-9.147-9.159-10.227 6.541a39.287 39.287 0 00-11.785-4.88l-2.61-11.864h-12.937l-2.61 11.864a39.21 39.21 0 00-11.785 4.88l-10.227-6.54-9.147 9.158zm102.321 42.66h50.468V90.886h-50.468v11.559zm0-50.455h50.468V40.42h-50.468v11.567zM437.32 155.453h-28.717v1.856h28.717v-1.856zm0 6.185h-12.017v1.857h12.017v-1.857zm-16.7 1.857v-1.857h-12.017v1.857h12.017zm6.872 4.336h-18.889v1.856h18.889v-1.856zm135.292-23.314h33.566V93.292h-33.566v51.225zm0-53.08h33.566V40.217h-33.566v51.218zm52.186 57.46a3.451 3.451 0 003.45 3.46h.326a3.453 3.453 0 003.457-3.46 3.451 3.451 0 00-3.457-3.451h-.326a3.45 3.45 0 00-3.45 3.451zm0-16.149a3.456 3.456 0 003.45 3.46h.326a3.458 3.458 0 003.457-3.46 3.458 3.458 0 00-3.457-3.459h-.326a3.456 3.456 0 00-3.45 3.46zm0-16.15a3.45 3.45 0 003.45 3.453h.326a3.451 3.451 0 003.457-3.452 3.453 3.453 0 00-3.457-3.46h-.326a3.451 3.451 0 00-3.45 3.46zm0-16.156a3.456 3.456 0 003.45 3.46h.326a3.458 3.458 0 003.457-3.46 3.458 3.458 0 00-3.457-3.459h-.326a3.456 3.456 0 00-3.45 3.46zm0-16.156a3.451 3.451 0 003.45 3.459h.326a3.453 3.453 0 003.457-3.459 3.451 3.451 0 00-3.457-3.452h-.326a3.45 3.45 0 00-3.45 3.452zm0-16.15a3.456 3.456 0 003.45 3.46h.326a3.458 3.458 0 003.457-3.46 3.458 3.458 0 00-3.457-3.458h-.326a3.456 3.456 0 00-3.45 3.459zm0-16.148a3.45 3.45 0 003.45 3.451h.326a3.451 3.451 0 003.457-3.451 3.453 3.453 0 00-3.457-3.46h-.326a3.451 3.451 0 00-3.45 3.46zm0-16.157a3.456 3.456 0 003.45 3.46h.326a3.458 3.458 0 003.457-3.46 3.458 3.458 0 00-3.457-3.459h-.326a3.456 3.456 0 00-3.45 3.46zm0-18.52a4.851 4.851 0 109.705 0 4.856 4.856 0 00-4.856-4.852 4.85 4.85 0 00-4.85 4.852zm14.684 131.586a3.458 3.458 0 003.458 3.46h29.304a3.456 3.456 0 100-6.91l-29.304-.001a3.456 3.456 0 00-3.458 3.451zm0-16.149a3.462 3.462 0 003.458 3.46h62.703a3.462 3.462 0 003.457-3.46 3.462 3.462 0 00-3.457-3.459h-62.703a3.462 3.462 0 00-3.458 3.46zm0-16.15a3.456 3.456 0 003.458 3.453h40.19a3.456 3.456 0 100-6.911h-40.19a3.458 3.458 0 00-3.458 3.459zm0-16.156a3.462 3.462 0 003.458 3.46h53.055a3.456 3.456 0 003.45-3.46 3.456 3.456 0 00-3.45-3.459h-53.055a3.462 3.462 0 00-3.458 3.46zm0-16.156a3.458 3.458 0 003.458 3.459h69.632a3.451 3.451 0 003.45-3.459 3.45 3.45 0 00-3.45-3.452h-69.632a3.456 3.456 0 00-3.458 3.452zm0-16.15a3.462 3.462 0 003.458 3.46h14.213a3.462 3.462 0 003.457-3.46 3.462 3.462 0 00-3.457-3.458h-14.213a3.462 3.462 0 00-3.458 3.459zm0-16.148a3.456 3.456 0 003.458 3.451h47.859a3.456 3.456 0 100-6.91h-47.86a3.458 3.458 0 00-3.457 3.459zm0-16.157a3.462 3.462 0 003.458 3.46h21.976a3.456 3.456 0 003.45-3.46 3.456 3.456 0 00-3.45-3.459h-21.976a3.462 3.462 0 00-3.458 3.46zm3.69-18.52a4.858 4.858 0 004.856 4.858 4.856 4.856 0 10-4.856-4.859zm100.74 47.367h-69.632a3.456 3.456 0 00-3.45 3.459 3.456 3.456 0 003.45 3.459h69.632a3.462 3.462 0 003.458-3.46 3.462 3.462 0 00-3.458-3.458zm1.479 19.608a3.45 3.45 0 00-3.45-3.452h-14.214a3.456 3.456 0 100 6.911h14.214a3.451 3.451 0 003.45-3.459zm-1.732 32.313a3.451 3.451 0 00-3.45-3.46h-14.214a3.456 3.456 0 100 6.91l14.214.002a3.45 3.45 0 003.45-3.452zm-28.695 0a3.453 3.453 0 00-3.458-3.46h-14.213a3.451 3.451 0 00-3.45 3.46 3.45 3.45 0 003.45 3.452h14.213a3.451 3.451 0 003.458-3.452zm13.677 32.298a3.451 3.451 0 00-3.458-3.451h-40.183a3.451 3.451 0 00-3.457 3.451 3.453 3.453 0 003.457 3.46h40.183a3.453 3.453 0 003.458-3.46zm95.109-4.38h43.93V93.292h-43.93v51.225zm0-53.08h43.93V40.217h-43.93v51.218zm64.812 49.904h180.998V48.53H878.734v92.812zm18.38-124.03a4.858 4.858 0 004.857 4.858 4.856 4.856 0 10-4.856-4.859zm126.87 134.117h-28.723v1.856h28.724v-1.856zm0 6.186h-12.024v1.856h12.025v-1.856zm-16.699 1.856v-1.856h-12.024v1.856h12.024zm6.864 4.336h-18.888v1.857h18.888v-1.857zm-49.54-12.378h-28.724v1.856h28.724v-1.856zm0 6.186h-12.025v1.856h12.025v-1.856zm-16.7 1.856v-1.856h-12.024v1.856h12.024zm6.864 4.336h-18.888v1.857h18.888v-1.857zm-609.561 18.195V9.588c0-5.127 4.153-9.282 9.277-9.282h199.017c5.125 0 9.278 4.155 9.278 9.282v28.774h33.566V9.588c0-5.127 4.153-9.282 9.277-9.282h199.017c5.124 0 9.278 4.155 9.278 9.282v28.774h43.93V9.588c0-5.127 4.153-9.282 9.278-9.282h199.01a9.274 9.274 0 019.277 9.282v134.93h23.977c.376.608.724 1.24 1.087 1.856h-25.064V182a9.274 9.274 0 01-9.278 9.282H867.13c-5.124 0-9.277-4.156-9.277-9.282v-35.627h-43.93v16.316c0 5.127-4.154 9.282-9.278 9.282H605.627c-5.124 0-9.277-4.155-9.277-9.282v-16.316h-33.566V182c0 5.126-4.153 9.282-9.278 9.282H354.49c-5.124 0-9.277-4.156-9.277-9.282zm638.814 49.1a1.86 1.86 0 00-1.855 1.856c0 1.03.833 1.857 1.855 1.857h37.48a1.85 1.85 0 001.855-1.857 1.855 1.855 0 00-1.855-1.856h-37.48zm40.597 219.221a1.855 1.855 0 00-1.856-1.856h-49.185a1.86 1.86 0 00-1.856 1.856 1.86 1.86 0 001.856 1.857h49.185c1.03 0 1.856-.834 1.856-1.857zm-20.556 36.388a1.85 1.85 0 00-1.855-1.856H931.26a1.855 1.855 0 00-1.855 1.856 1.86 1.86 0 001.855 1.857h70.952c1.029 0 1.855-.834 1.855-1.857zm-1.522 12.125a1.855 1.855 0 00-1.855-1.856h-70.952c-1.029 0-1.855.834-1.855 1.856a1.85 1.85 0 001.855 1.856h70.952a1.85 1.85 0 001.855-1.856zm-70.096-36.388c0 1.03.834 1.856 1.856 1.856h57.339a1.855 1.855 0 001.855-1.856 1.86 1.86 0 00-1.855-1.857h-57.34a1.86 1.86 0 00-1.855 1.857zm1.53-12.125c0 1.023.826 1.857 1.855 1.857h24.593a1.86 1.86 0 001.855-1.857 1.86 1.86 0 00-1.855-1.856h-24.593c-1.03 0-1.856.834-1.856 1.856zm1.522-12.124c0 1.022.826 1.856 1.855 1.856h70.951c1.03 0 1.856-.834 1.856-1.856a1.85 1.85 0 00-1.856-1.857h-70.951a1.85 1.85 0 00-1.855 1.857zm-13.656 0c0-1.03-.833-1.857-1.855-1.857h-12.373a1.855 1.855 0 00-1.855 1.857 1.86 1.86 0 001.855 1.856h12.373a1.86 1.86 0 001.855-1.856zm-1.53 12.124a1.855 1.855 0 00-1.855-1.856h-12.365c-1.029 0-1.855.834-1.855 1.856 0 1.023.826 1.857 1.855 1.857h12.365c1.03 0 1.856-.834 1.856-1.857zm-1.521 12.125a1.855 1.855 0 00-1.856-1.857h-12.372a1.86 1.86 0 00-1.856 1.857c0 1.03.834 1.856 1.856 1.856h12.372a1.85 1.85 0 001.856-1.856zm-3.044 24.263c0-1.03-.834-1.856-1.856-1.856h-12.372a1.855 1.855 0 00-1.856 1.856 1.86 1.86 0 001.856 1.857h12.372a1.86 1.86 0 001.856-1.857zm-1.522 12.125a1.86 1.86 0 00-1.856-1.856H900c-1.03 0-1.856.834-1.856 1.856a1.85 1.85 0 001.856 1.856h12.372a1.855 1.855 0 001.856-1.856zm134.937-68.1l-10.206 81.204h-22.273c.188-.283.319-.61.319-.972a1.85 1.85 0 00-1.856-1.857h-49.185a1.855 1.855 0 00-1.855 1.857c0 .362.13.689.319.972h-10.083c.182-.283.32-.61.32-.972 0-1.03-.834-1.857-1.856-1.857h-24.6a1.855 1.855 0 00-1.856 1.857c0 .362.138.689.32.972h-14.294c.189-.283.32-.61.32-.972a1.85 1.85 0 00-1.856-1.857h-12.366a1.85 1.85 0 00-1.855 1.857c0 .362.13.689.319.972h-12.199l10.206-81.203c.645-5.127 5.32-9.282 10.444-9.282h135.662c5.117 0 8.756 4.155 8.11 9.282zm-263.402 27.209h-14.134c-1.95 0-3.725 1.58-3.964 3.531-.247 1.943 1.13 3.524 3.08 3.524h14.134c1.95 0 3.725-1.58 3.972-3.524.239-1.95-1.138-3.531-3.088-3.531zm-33.327 0h-14.133c-1.95 0-3.726 1.58-3.972 3.531-.24 1.943 1.138 3.524 3.087 3.524h14.134c1.943 0 3.726-1.58 3.972-3.524.24-1.95-1.138-3.531-3.088-3.531zm-24.215-29.667c-1.515 0-2.9 1.233-3.088 2.749-.188 1.515.884 2.748 2.4 2.748 1.514 0 2.898-1.233 3.087-2.748.195-1.516-.885-2.749-2.4-2.749zm9.705 5.497c1.515 0 2.892-1.233 3.087-2.748.189-1.516-.884-2.749-2.399-2.749-1.514 0-2.899 1.233-3.087 2.749-.196 1.515.884 2.748 2.399 2.748zm10.386 0c1.515 0 2.9-1.233 3.088-2.748.196-1.516-.877-2.749-2.4-2.749-1.514 0-2.891 1.233-3.087 2.749-.188 1.515.884 2.748 2.4 2.748zm28.898 11.545H749.56a1.86 1.86 0 00-1.856 1.856c0 1.03.834 1.856 1.856 1.856h27.651a1.85 1.85 0 001.856-1.856 1.855 1.855 0 00-1.856-1.856zm28.086-23.887c5.125 0 8.763 4.162 8.118 9.282l-3.892 30.942c-.638 5.127-5.32 9.282-10.437 9.282H720.29c-5.124 0-8.755-4.155-8.11-9.282l3.885-30.942c.645-5.12 5.32-9.282 10.444-9.282h78.786zm-41.908-161.253c.196-1.515-.877-2.748-2.399-2.748-1.507 0-2.892 1.233-3.088 2.748-.188 1.516.885 2.742 2.4 2.742 1.514 0 2.899-1.226 3.087-2.742zm97.958 134.937c0-1.03-.834-1.856-1.856-1.856h-9.48a1.85 1.85 0 00-1.856 1.856c0 1.023.827 1.857 1.856 1.857h9.48a1.86 1.86 0 001.856-1.857zm-13.598-95.292a1.86 1.86 0 001.856-1.857c0-1.03-.834-1.856-1.856-1.856h-27.622a1.855 1.855 0 00-1.856 1.856 1.86 1.86 0 001.856 1.857h27.622zm-5.378 14.394h-67.21c-2.733 0-5.227 2.219-5.567 4.953l-2.037 16.17c-.34 2.727 1.594 4.946 4.327 4.946h67.211c2.733 0 5.226-2.219 5.567-4.945l2.03-16.171c.347-2.734-1.595-4.953-4.32-4.953zm-29 73.842h9.481a1.86 1.86 0 001.856-1.856c0-1.03-.834-1.856-1.856-1.856h-9.48a1.85 1.85 0 00-1.856 1.856c0 1.022.827 1.856 1.856 1.856zm16.236 7.056c0-1.03-.833-1.856-1.855-1.856h-15.504a1.855 1.855 0 00-1.855 1.856 1.86 1.86 0 001.855 1.857h15.504a1.86 1.86 0 001.855-1.857zm-32.087-8.912c0-1.03-.833-1.856-1.855-1.856h-16.555a1.85 1.85 0 00-1.855 1.856c0 1.022.826 1.856 1.855 1.856h16.555a1.86 1.86 0 001.855-1.856zm-8.19 8.912c0-1.03-.834-1.856-1.855-1.856h-9.488a1.855 1.855 0 00-1.856 1.856 1.86 1.86 0 001.856 1.857h9.488a1.86 1.86 0 001.855-1.857zm-29.239-8.912a1.85 1.85 0 00-1.855-1.856h-18.961a1.855 1.855 0 00-1.856 1.856 1.86 1.86 0 001.856 1.856h18.96c1.03 0 1.856-.834 1.856-1.856zm-8.69 8.912c0-1.03-.834-1.856-1.856-1.856h-11.386a1.85 1.85 0 00-1.856 1.856c0 1.023.827 1.857 1.856 1.857h11.386a1.86 1.86 0 001.856-1.857zm18.997-97.149a1.86 1.86 0 001.856 1.857h35.044c1.03 0 1.855-.834 1.855-1.857a1.85 1.85 0 00-1.855-1.856h-35.044a1.855 1.855 0 00-1.856 1.856zm78.873 88.237a1.86 1.86 0 001.856 1.856h16.554a1.86 1.86 0 001.856-1.856c0-1.03-.834-1.856-1.856-1.856h-16.554a1.855 1.855 0 00-1.856 1.856zm15.562 21.66H729.17c-5.124 0-8.755-4.155-8.11-9.282l15.684-124.878h154.217l2.233-17.774-17.925 142.652c-.638 5.127-5.313 9.282-10.437 9.282zm207.737 90.92h-18.722a1.86 1.86 0 00-1.856 1.857 1.86 1.86 0 001.856 1.856h18.722a1.86 1.86 0 001.855-1.856 1.86 1.86 0 00-1.855-1.857zm9.147-12.132h-26.34c-1.03 0-1.855.834-1.855 1.857a1.85 1.85 0 001.855 1.856h26.34a1.85 1.85 0 001.855-1.856 1.855 1.855 0 00-1.855-1.857zm-24.818-8.411h15.634a1.86 1.86 0 001.856-1.857 1.86 1.86 0 00-1.856-1.856h-15.634c-1.029 0-1.855.834-1.855 1.856 0 1.023.826 1.857 1.855 1.857zm33.892-140.717h-18.714c-1.03 0-1.856.834-1.856 1.857a1.85 1.85 0 001.856 1.856h18.714a1.855 1.855 0 001.856-1.856 1.86 1.86 0 00-1.856-1.857zm9.147-12.124h-26.34a1.85 1.85 0 00-1.855 1.856c0 1.023.827 1.857 1.856 1.857h26.34c1.028 0 1.855-.834 1.855-1.857a1.85 1.85 0 00-1.856-1.856zm-24.817-12.132a1.86 1.86 0 00-1.856 1.856c0 1.03.834 1.857 1.856 1.857h15.634a1.85 1.85 0 001.855-1.857 1.855 1.855 0 00-1.855-1.856h-15.634zm-28.311-39.564a1.855 1.855 0 00-1.856-1.857h-31.26c-1.03 0-1.856.834-1.856 1.857a1.85 1.85 0 001.856 1.856h31.26a1.85 1.85 0 001.856-1.856zm-15.656 24.263a1.85 1.85 0 00-1.855-1.856h-27.318a1.855 1.855 0 00-1.856 1.856 1.86 1.86 0 001.856 1.857h27.318c1.029 0 1.855-.834 1.855-1.857zm-7.618 60.638a1.855 1.855 0 00-1.855-1.857h-27.318a1.86 1.86 0 00-1.856 1.857c0 1.03.834 1.856 1.856 1.856h27.318a1.85 1.85 0 001.855-1.856zm-13.56 12.131a1.85 1.85 0 00-1.856-1.856H975.11a1.85 1.85 0 00-1.855 1.856c0 1.023.826 1.857 1.855 1.857h33.008c1.029 0 1.855-.834 1.855-1.857zm-18.708 12.125a1.86 1.86 0 00-1.855-1.856h-45.105c-1.03 0-1.856.834-1.856 1.856a1.85 1.85 0 001.856 1.856h45.105a1.855 1.855 0 001.855-1.856zm-48.765-109.157a1.855 1.855 0 00-1.855-1.857H928.28a1.86 1.86 0 00-1.855 1.857c0 1.03.834 1.856 1.855 1.856h12.366a1.85 1.85 0 001.855-1.856zm-1.522 12.131a1.855 1.855 0 00-1.855-1.856h-12.366c-1.029 0-1.855.834-1.855 1.856 0 1.023.826 1.857 1.855 1.857h12.366c1.029 0 1.855-.834 1.855-1.857zm-1.522 12.132a1.85 1.85 0 00-1.856-1.856h-12.365a1.85 1.85 0 00-1.855 1.856c0 1.023.826 1.857 1.855 1.857h12.365c1.03 0 1.856-.834 1.856-1.857zm-1.522 12.125a1.86 1.86 0 00-1.856-1.857h-12.372a1.86 1.86 0 00-1.856 1.857 1.86 1.86 0 001.856 1.856h12.372a1.86 1.86 0 001.856-1.856zm-1.522 12.132c0-1.03-.834-1.857-1.856-1.857h-12.372a1.855 1.855 0 00-1.856 1.857 1.86 1.86 0 001.856 1.856h12.372a1.86 1.86 0 001.856-1.856zm-3.052 24.256a1.85 1.85 0 00-1.855-1.856h-12.365a1.85 1.85 0 00-1.856 1.856c0 1.023.826 1.856 1.856 1.856h12.365c1.03 0 1.855-.833 1.855-1.856zm-1.522 12.125a1.86 1.86 0 00-1.855-1.857h-12.373a1.86 1.86 0 00-1.855 1.857c0 1.03.833 1.856 1.855 1.856h12.373a1.855 1.855 0 001.855-1.856zm-1.522 12.131c0-1.03-.833-1.856-1.855-1.856H916.09a1.855 1.855 0 00-1.855 1.856 1.86 1.86 0 001.855 1.857h12.373a1.86 1.86 0 001.855-1.857zm-1.522 12.125a1.86 1.86 0 00-1.855-1.856h-12.373a1.86 1.86 0 00-1.855 1.856c0 1.03.833 1.856 1.855 1.856h12.373a1.855 1.855 0 001.855-1.856zm15.178-12.125a1.86 1.86 0 001.855 1.857h18.715a1.86 1.86 0 001.855-1.857c0-1.03-.834-1.856-1.855-1.856h-18.715a1.855 1.855 0 00-1.855 1.856zm1.522-12.131c0 1.03.833 1.856 1.855 1.856h36.45a1.855 1.855 0 001.856-1.856 1.86 1.86 0 00-1.855-1.857h-36.45a1.86 1.86 0 00-1.856 1.857zm1.522-12.125a1.86 1.86 0 001.855 1.856h15.634c1.03 0 1.856-.833 1.856-1.856a1.85 1.85 0 00-1.856-1.856h-15.634a1.855 1.855 0 00-1.855 1.856zm3.051-24.256a1.86 1.86 0 001.856 1.856h22.548c1.03 0 1.856-.834 1.856-1.856a1.85 1.85 0 00-1.856-1.857h-22.548a1.855 1.855 0 00-1.856 1.857zm1.522-12.132a1.86 1.86 0 001.856 1.856h18.714c1.03 0 1.856-.834 1.856-1.856a1.855 1.855 0 00-1.856-1.857h-18.714a1.86 1.86 0 00-1.856 1.857zm1.522-12.125a1.86 1.86 0 001.856 1.857h36.45a1.86 1.86 0 001.856-1.857c0-1.03-.834-1.856-1.856-1.856h-36.45a1.855 1.855 0 00-1.856 1.856zm1.522-12.132a1.86 1.86 0 001.856 1.857h15.634c1.03 0 1.855-.834 1.855-1.857a1.855 1.855 0 00-1.855-1.856H956.49a1.86 1.86 0 00-1.856 1.856zm1.53-12.131a1.85 1.85 0 001.855 1.856h45.105a1.855 1.855 0 001.855-1.856 1.86 1.86 0 00-1.855-1.857H958.02c-1.029 0-1.855.834-1.855 1.857zm55.592 13.988c1.03 0 1.856-.834 1.856-1.857a1.855 1.855 0 00-1.856-1.856H980.49a1.86 1.86 0 00-1.855 1.856 1.86 1.86 0 001.855 1.857h31.268zm-14.778 22.4a1.86 1.86 0 00-1.856-1.857h-12.394c-1.03 0-1.856.834-1.856 1.857 0 1.022.827 1.856 1.856 1.856h12.394a1.86 1.86 0 001.856-1.856zm7.16 34.532h-31.267a1.855 1.855 0 00-1.856 1.856 1.86 1.86 0 001.856 1.856h31.268c1.029 0 1.855-.833 1.855-1.856a1.85 1.85 0 00-1.855-1.856zm10.771-20.544a1.86 1.86 0 001.856-1.856c0-1.03-.834-1.857-1.856-1.857h-32.326a1.855 1.855 0 00-1.856 1.857 1.86 1.86 0 001.856 1.856h32.326zm38.292 74.502c-.645 5.127-5.32 9.282-10.445 9.282H907.095c-5.124 0-8.755-4.155-8.11-9.282l17.924-142.652c.638-5.127 5.32-9.282 10.437-9.282h135.662c5.125 0 8.756 4.155 8.118 9.282l-17.924 142.652zM568.22 303.747l-1.725-14.242c-1.667-13.829 2.406-26.896 10.227-36.983h-76.003v51.014c0 .073-.022.138-.022.21h67.523zm-83.077-52.937h-18.381V295.3h18.38V250.81zm-27.71 1.712v-7.28h-18.38v50.057h18.38v-42.777zm-27.709 4.967h-18.381v37.81h18.381v-37.81zm-27.71 22.35h-18.38v15.46h18.38v-15.46zm-27.709-7.869h-18.38V295.3h18.38V271.97zm187.82 86.707H282.341c-.043-.616-.094-1.24-.13-1.856h280.434l5.088-17.933a60.583 60.583 0 001.856-23.785l-1.145-9.5h-67.98c-.942 4.126-4.617 7.215-9.024 7.215H354.49c-4.414 0-8.089-3.089-9.03-7.215h-62.573c.058-.623.13-1.24.195-1.856h62.152c0-.073-.021-.138-.021-.21v-51.015h-52.44c.174-.624.37-1.233.55-1.857h51.89V231.66c0-5.127 4.153-9.282 9.277-9.282h136.952c5.117 0 9.278 4.155 9.278 9.282v19.006h77.518c9.205-10.775 22.882-17.708 38.356-17.708 15.272 0 29.08 6.824 38.379 17.708h48.852l-.203 1.857h-47.134a50.284 50.284 0 0110.3 25.743l.506 4.91 10.568 20.572h20.085l-.21 1.856h-19.194c.044 1.175-.688 2.313-1.913 2.669l-4.146 1.218c-1.21.348-2 1.494-1.906 2.748.638 8.26 2.493 37.716-3.284 40.826-6.726 3.626-38.842-2.871-38.842-2.871a80.441 80.441 0 00-1.53 6.628h65.14l-.204 1.856h-65.254a83.932 83.932 0 00-.826 20.834c-7.198-2.458-16.816-6.23-31.776-9.275-14.336-2.915-28.159.377-36 2.995l4.123-14.554zM520.048 508.16c-2.283-14.423-5.29-29.303-9.053-43.327h.008c-.066-.247-.13-.486-.196-.726-1.348-4.96-2.783-9.818-4.32-14.495-5.139-15.635-.254-31.523 10.387-41.791-.515.232-1.037.435-1.544.689-.87.435-1.696.906-2.515 1.385H289.409c.13.623.254 1.24.384 1.856H509.96c-16.047 11.523-21.222 33.59-11.3 51.225H304.014c.21.616.406 1.24.623 1.857h195.06l20.352 43.327zm174.012 274.464c7.574 0 15.163-.413 22.758-1.19h-48.54c8.567.762 17.164 1.19 25.782 1.19zM590.073 728.42c-1.798 0-3.552-.022-5.277-.058h-69.545c1.022.623 2.051 1.233 3.073 1.856h333.657c.957-.616 1.906-1.24 2.856-1.856H592.334c-.76.007-1.486.058-2.261.058zm-73.662-53.14h-71.502c.681.624 1.362 1.24 2.044 1.857h69.566l-.108-1.856zm156.746 1.857h246.927c.667-.616 1.334-1.233 2-1.856H673.817c-.21.609-.428 1.218-.66 1.856zm-155.282-54.93H394.317c.522.623 1.051 1.232 1.573 1.856h121.796c.058-.624.124-1.24.189-1.857zm7.705-53.082H355.634c.399.624.798 1.24 1.196 1.857h168.75v-1.857zm285.906 26.628c4.35.703 8.626 1.378 12.764 2.009l-.471-.733-11.01-2.335-1.283 1.059zm96.994 26.453h27.927l-8.836-6.163-15.8 3.61-3.291 2.553zM694.22 516.05h353.9c-.362.617-.717 1.24-1.08 1.857H695.163c11.757 22.784 22.534 41.725 29.036 51.217h289.864c-.435.624-.87 1.24-1.304 1.857H725.503c1.688 2.35 3.015 3.886 3.877 4.46 6.893 4.597 23.933 9.209 43.837 13.342l31.572-11.921a10.686 10.686 0 019.698 1.116l15.598 10.428 6.509 11.196a1711.495 1711.495 0 0027.76 3.793l17.286-.653 37.074-12.813a10.906 10.906 0 019.88 1.421l15.626 11.095 10.749 19.76h17.917c-.53.617-1.058 1.24-1.587 1.857h-15.323l.363.667a2.494 2.494 0 01-1.146 3.459c-2.616-.181-5.61-1.487-8.045-3.307l.63 4.271c.29 1.951-1.304 3.677-3.268 3.532a6.69 6.69 0 01-6.117-5.526l-.544-3.096H906.08l-7.596 5.88a28.19 28.19 0 01-12.148 5.418c-2.863.522-5.813.435-8.698.043l-17.533-2.422-130.515-.928c-15.758-.66-27.362-3.655-36.19-7.991h-33.29a32.429 32.429 0 01-.269-.9h-.007c-.072-.246-.145-.492-.217-.746a7.494 7.494 0 01-.065-.21h.007c-2.79-9.471-4.798-19.29-4.798-27.962 0-4.939.732-10.145 1.92-15.54l.928.174-19.577-37.81a15.21 15.21 0 01-3.153.334c-9.741 0-19.352-9.137-26.571-23.495h-281.45c-.297-.617-.608-1.233-.913-1.857h281.457c-5.299-11.182-9.19-25.242-10.684-40.536-1.196-12.262-.696-23.734 1.153-33.567-.145-12.857 3.32-24.083 12.901-28.55.768-.362 1.544-.645 2.312-.942 2.74-1.835 5.726-2.828 8.93-2.828 1.305 0 2.602.18 3.892.493 12.85.29 24.281 8.498 29.695 22.124 10.829 27.251 25.282 57.875 38.604 83.806h.014zm-14.126-51.217l.203-1.857h-7.423c.21.616.42 1.24.624 1.857h6.596zm6.088-54.938H649.84c.21.384.428.761.624 1.146l.355.71h35.16l.203-1.856zm435.333-212.304h-806.26c-.333.617-.66 1.24-.985 1.857h807.694c-.152-.617-.297-1.24-.45-1.857" fill="#f3d0d2"/></g><clipPath id="f"><path transform="scale(.24)" d="M1435.845 47.685H4775.75v3325.95H1435.845z" fill-rule="evenodd"/></clipPath><g clip-path="url(#f)"><path d="M919.54 574.853l-52.265.16-26.13.086-26.129.262v.84l26.13.255 26.129.087 52.265.16 52.259-.197 26.136-.101 26.13-.269v-.71l-26.13-.268-26.136-.11-52.259-.195zm-21.918-411.047h-18.881v1.857h18.881v-1.857zm9.836-4.336v-1.856H895.44v1.856h12.017zm-16.7-1.856h-12.017v1.856h12.017v-1.856zm16.7-6.186H878.74v1.856h28.717v-1.856zM920.352 22.17a4.856 4.856 0 100-9.71 4.85 4.85 0 00-4.849 4.852 4.851 4.851 0 004.85 4.858zm-263.771 0a4.856 4.856 0 100-9.707 4.856 4.856 0 000 9.707zM466.979 167.831h-18.888v1.856h18.888v-1.856zm9.836-4.336v-1.857H464.79v1.857h12.025zm-16.7-1.857h-12.024v1.857h12.024v-1.857zm16.7-6.185H448.09v1.856h28.724v-1.856zM398.71 22.169a4.856 4.856 0 000-9.71 4.856 4.856 0 100 9.71zm-34.523 282.042h1.856v-1.98h25.853v1.98h1.856v-1.98h25.854v1.98h1.855v-1.98h25.854v1.98h1.856v-1.98h25.853v1.98h1.856v-1.98h8.444v-1.856h-8.444v-1.98h-1.856v1.98h-25.853v-1.98h-1.856v1.98h-25.854v-1.98h-1.855v1.98h-25.854v-1.98h-1.856v1.98h-25.853v-1.98h-1.856v1.98h-8.263v1.856h8.263v1.98zm602.393-71.254a1.86 1.86 0 00-1.855-1.856H725.003c-1.03 0-1.856.834-1.856 1.856a1.85 1.85 0 001.856 1.857h239.722a1.855 1.855 0 001.855-1.857zM912.372 496.98H900c-1.03 0-1.856.834-1.856 1.856a1.85 1.85 0 001.856 1.856h12.372a1.855 1.855 0 001.856-1.856 1.86 1.86 0 00-1.856-1.856zm3.378-10.269c0-1.03-.834-1.856-1.856-1.856h-12.372a1.855 1.855 0 00-1.856 1.856 1.86 1.86 0 001.856 1.857h12.372a1.86 1.86 0 001.856-1.857zm3.044-24.263a1.855 1.855 0 00-1.856-1.857h-12.372a1.86 1.86 0 00-1.856 1.857c0 1.03.834 1.856 1.856 1.856h12.372a1.85 1.85 0 001.856-1.856zm1.522-12.125a1.855 1.855 0 00-1.856-1.856h-12.365c-1.029 0-1.855.834-1.855 1.856 0 1.023.826 1.857 1.855 1.857h12.365c1.03 0 1.856-.834 1.856-1.857zm1.53-12.124c0-1.03-.834-1.857-1.856-1.857h-12.373a1.855 1.855 0 00-1.855 1.857 1.86 1.86 0 001.855 1.856h12.373a1.86 1.86 0 001.855-1.856zm-175.933-7.172c-.188 1.515.884 2.748 2.4 2.748 1.514 0 2.898-1.233 3.087-2.748.196-1.516-.877-2.749-2.4-2.749-1.514 0-2.891 1.233-3.087 2.749zm22.382-170.847c-.188 1.516.884 2.742 2.4 2.742 1.514 0 2.898-1.226 3.087-2.742.188-1.515-.884-2.748-2.4-2.748-1.514 0-2.898 1.233-3.087 2.748zm27.463 65.22a1.855 1.855 0 00-1.855 1.857 1.86 1.86 0 001.855 1.857h22.737a1.86 1.86 0 001.856-1.857c0-1.03-.834-1.856-1.856-1.856h-22.737zm133.038 57.462a1.86 1.86 0 00-1.855-1.856h-12.373a1.86 1.86 0 00-1.855 1.856c0 1.03.833 1.856 1.855 1.856h12.373a1.855 1.855 0 001.855-1.856zm1.522-12.125c0-1.03-.833-1.856-1.855-1.856H916.09a1.855 1.855 0 00-1.855 1.856 1.86 1.86 0 001.855 1.857h12.373a1.86 1.86 0 001.855-1.857zm1.522-12.131a1.86 1.86 0 00-1.855-1.857h-12.373a1.86 1.86 0 00-1.855 1.857c0 1.03.833 1.856 1.855 1.856h12.373a1.855 1.855 0 001.855-1.856zm1.522-12.125a1.85 1.85 0 00-1.855-1.856h-12.365a1.85 1.85 0 00-1.856 1.856c0 1.023.826 1.856 1.856 1.856h12.365c1.03 0 1.855-.833 1.855-1.856zm3.052-24.256c0-1.03-.834-1.857-1.856-1.857h-12.372a1.855 1.855 0 00-1.856 1.857 1.86 1.86 0 001.856 1.856h12.372a1.86 1.86 0 001.856-1.856zm1.522-12.132a1.86 1.86 0 00-1.856-1.857h-12.372a1.86 1.86 0 00-1.856 1.857 1.86 1.86 0 001.856 1.856h12.372a1.86 1.86 0 001.856-1.856zm1.522-12.125a1.85 1.85 0 00-1.856-1.856h-12.365a1.85 1.85 0 00-1.855 1.856c0 1.023.826 1.857 1.855 1.857h12.365c1.03 0 1.856-.834 1.856-1.857zm1.522-12.132a1.855 1.855 0 00-1.855-1.856h-12.366c-1.029 0-1.855.834-1.855 1.856 0 1.023.826 1.857 1.855 1.857h12.366c1.029 0 1.855-.834 1.855-1.857zm1.522-12.131a1.855 1.855 0 00-1.855-1.857H928.28a1.86 1.86 0 00-1.855 1.857c0 1.03.834 1.856 1.855 1.856h12.366a1.85 1.85 0 001.855-1.856zm-284.298 8.709l8.727-.435c.428-5.091 1.9-9.783 4.305-10.972-2.565-.268-5.059-.196-6.958.638-.123-6.44-2.667-9.87-4.262-13.916-.029 4.627 1.233 3.206.747 9.406-.268 3.437.428 6.961-.377 10.311-.42 1.777-1.247 3.394-2.182 4.968zm10.59-.53l7.27-.362c-.551-5.555-2.327-8.949-3.617-8.949-1.32 0-3.146 3.546-3.653 9.311zm7.407 1.487l-7.53.377c-.015.435-.022.877-.022 1.334 0 7.636 2.247 12.51 3.798 12.51 1.544 0 3.798-4.874 3.798-12.51 0-.587-.022-1.153-.044-1.711zm-174.96 74.618c-2.015-13.27 1.855-27.324 10.386-37.679 3.124-3.8 6.987-7.404 7.951-12.226.986-4.974-1.37-9.92-2.45-14.873-2.05-9.456.87-19.854 7.553-26.852 5.124-5.366 12.22-8.775 16.547-14.808 3.631-5.054 4.907-11.363 7.393-17.063 6.98-15.982 24.629-26.62 42.01-25.33 4.834-6.018 14.184-8.839 21.78-7.498 7.596 1.342 14.351 5.657 20.259 10.617 18.59-2.85 41.959 14.894 48.453 60.934-1.747-.522-4.182-1.218-6.748-1.725 2.428 2.066 3.725 7.976 3.725 13.596 0 6.962-1.986 14.366-5.653 14.366-3.675 0-5.654-7.404-5.654-14.366 0-.413.008-.826.022-1.24l-4.204.21c.805.428 1.406 2.016 1.406 3.924 0 2.233-.826 4.046-1.84 4.046-1.023 0-1.842-1.813-1.842-4.046 0-1.85.566-3.394 1.334-3.88l-4.653.232c-1.102 1.733-2.218 3.466-2.972 5.366-3.443 8.71 1.435 18.586.065 27.86-.862 5.816-4.117 10.98-5.878 16.592-2.493 7.962-.74 18.977 2.921 26.476h-25.745c-1.61-6.07-3.682-11.574-3.914-17.846-1.71 6.562-2.464 12.545-3.037 19.31-3.167-8.556-5.262-16.881-5.472-25.996-.906 7.295-1.218 14.597-2.124 21.9H501.24zm173.996 250.534c2.849 3.582 5.973 6.969 9.394 10.05 3.4 3.09 7.175 5.83 11.343 7.934a34.805 34.805 0 006.581 2.393c2.327.507 4.567.754 6.82 1.073 4.523.573 9.046 1.138 13.576 1.544 9.068.863 18.157 1.429 27.268 1.596a.421.421 0 00.029-.841c-4.53-.254-9.06-.624-13.576-1.037a497.845 497.845 0 01-13.547-1.35c-4.508-.536-9.016-1.05-13.51-1.674-2.24-.327-4.523-.602-6.632-1.08a33.501 33.501 0 01-6.197-2.292c-7.995-3.96-14.562-10.435-20.338-17.31-2.9-3.459-5.588-7.106-8.11-10.862-2.552-3.742-4.958-7.6-7.111-11.574l-.007-.014a.354.354 0 00-.471-.145.352.352 0 00-.16.47c4.059 8.188 8.937 15.954 14.648 23.119zm-62.101-112.21c-1.03-.617-1.979-1.335-2.892-2.11-.906-.791-1.74-1.683-2.573-2.619a.362.362 0 00-.609.37c.964 2.437 2.849 4.518 5.088 5.932a15.693 15.693 0 003.574 1.668 18.1 18.1 0 003.196.696c3.573 8.143 7.284 16.229 11.017 24.3 4.262 8.977 8.553 17.94 12.96 26.845 4.414 8.905 8.915 17.76 13.626 26.52a.411.411 0 00.55.18.424.424 0 00.196-.565c-2.196-4.453-4.334-8.934-6.465-13.416l-6.429-13.437-12.764-26.917c-4.262-8.963-8.422-17.984-12.532-27.012a646.935 646.935 0 01-6.015-13.612c-1.928-4.56-3.914-9.13-5.357-13.843l-.007-.022a.35.35 0 00-.435-.232.344.344 0 00-.24.435c2.748 9.623 6.727 18.76 10.62 27.904.224.508.456 1.016.68 1.523-.673-.29-1.355-.573-2-.877-1.102-.53-2.181-1.073-3.189-1.712zm48.7-176.271c.703.45 1.493.732 2.297.928.812.16 1.631.24 2.443.16.406-.03.797-.11 1.196-.167.391-.116.775-.218 1.145-.37a.388.388 0 00.225-.283.37.37 0 00-.312-.42c-1.53-.24-2.928-.4-4.284-.725-.674-.16-1.326-.37-1.985-.595-.646-.225-1.305-.537-1.914-.834l-.08-.044a.413.413 0 00-.398.022.418.418 0 00-.153.573c.464.79 1.11 1.305 1.82 1.755zm383.922 315.109l-32.13-48.332v-.42l-23.238-.262-23.237-.08-46.482-.166-46.482.203-23.237.101-23.245.269v.71l.544.008 1.834 1.225 6.153 10.587-10.835-1.544c.065-.03.137-.051.203-.087.42-.21.775-.53 1.094-.87.297-.363.565-.755.725-1.197.16-.442.268-.906.217-1.4a.565.565 0 00-.108-.253.47.47 0 00-.66-.051l-.022.014c-.34.29-.587.58-.848.856-.26.268-.478.551-.71.827-.225.283-.464.55-.681.863-.232.304-.472.609-.704.993l-.014.015c0 .014 0 .021-.007.036l-.109-.167-10.684-2.262c.066-.261.138-.515.189-.769.188-.892.239-1.798.246-2.705-.021-.914-.094-1.82-.297-2.705-.188-.884-.45-1.762-.87-2.574a.431.431 0 00-.377-.232.432.432 0 00-.442.428c-.014.885.037 1.733.058 2.581l.073 2.531.05 2.531c.008.544.022 1.102.03 1.653l-5.328-.761c-18.54-2.777-37.095-5.598-55.47-9.224-4.58-.914-9.182-1.842-13.611-3.147-1.087-.341-2.203-.704-3.131-1.182-.5-.276-.587-.334-.957-.928l-.942-1.422a356.94 356.94 0 01-3.653-5.997c-4.798-8.049-9.495-16.178-14.185-24.3l-16.598-28.84H896.1l10.916 41.77h78.648l-10.908-41.77h119.433c11.655 0 21.44-8.766 22.723-20.347l28.739-259.351c1.5-13.546-9.097-25.395-22.723-25.395H720.48c-11.655 0-21.44 8.767-22.723 20.355l-25.172 227.176c2.377 6.954 4.334 13.735 5.595 19.964l27.289-246.284a15.085 15.085 0 0115.01-13.445h402.449c4.349 0 8.35 1.791 11.249 5.033 2.906 3.241 4.24 7.41 3.762 11.74L1109.2 498.501a15.09 15.09 0 01-15.01 13.438H912.38c.188-.283.318-.61.318-.972a1.85 1.85 0 00-1.855-1.857h-12.366a1.85 1.85 0 00-1.855 1.857c0 .362.13.689.319.972H693.408l-7.023-12.19a.358.358 0 00-.479-.13.363.363 0 00-.137.485l6.545 11.835h-.21c1.34 2.64 2.674 5.228 3.993 7.766h.5l2.784 5.04 13.836 24.524c4.639 8.158 9.27 16.316 14.025 24.416 1.182 2.03 2.4 4.047 3.631 6.063l.986 1.508c.21.276.225.45.624.82.333.333.616.464.913.638 1.16.601 2.29.964 3.435 1.334 4.56 1.378 9.162 2.335 13.772 3.285 18.46 3.553 37.037 6.25 55.607 8.926l27.89 3.83 27.934 3.43c.225.021.442-.139.464-.363a.413.413 0 00-.355-.472l-10.321-1.472 9.125-13.727 13.242.058 46.482.196 46.482-.16 23.237-.08 11.235-.13 31.76 47.78h-11.763l-16.859-19.086-7.777 5.113 14.402 13.974h-46.685l42.452-26.954h-59.811l8.995 16.533a2.494 2.494 0 01-1.146 3.459c-2.428-.174-5.175-1.32-7.508-2.937 0-.058.021-.101 0-.152-1-2.357-1.022-4.96-1.341-7.636-.145-1.349-.435-2.727-.964-4.06-.53-1.335-1.283-2.546-2.16-3.641-1.805-2.14-3.98-3.829-6.176-5.323-2.196-1.508-4.392-2.922-6.363-4.648a.343.343 0 00-.457-.007.348.348 0 00-.05.493c1.71 2.125 3.877 3.785 5.943 5.424 2.065 1.632 4.116 3.234 5.668 5.228.79.972 1.478 2.016 1.95 3.14.492 1.124.724 2.364.985 3.633.384 2.067.623 4.351 1.522 6.432-1.138-.979-2.124-2.052-2.798-3.176l-5.914-9.89-10.51-2.539c-.021-.029-.036-.058-.058-.08a.363.363 0 00-.391-.116c-.036.015-.05.051-.08.066l-.138-.03-14.786 11.443c.015-.087.03-.166.037-.246.087-.776.036-1.552-.08-2.32a9.191 9.191 0 00-.652-2.234c-.32-.703-.703-1.385-1.233-1.965a.452.452 0 00-.398-.13.433.433 0 00-.355.507c.116.732.29 1.414.42 2.096.123.688.283 1.356.391 2.037.138.675.225 1.356.341 2.045.065.406.13.827.196 1.247l-11.75 9.094c-3.34 2.581-7.204 4.322-11.277 5.207H875.79l-14.467-2.002c.884-.79 1.681-1.711 2.24-2.799.717-1.327 1.058-2.893.833-4.358a.44.44 0 00-.362-.356.43.43 0 00-.479.363 8.367 8.367 0 01-1.37 3.524c-.304.428-.66.827-1.022 1.219a11.81 11.81 0 00-.333-2.524c-.384-1.595-1.05-3.118-2.051-4.38a.35.35 0 00-.406-.116.363.363 0 00-.21.464c.536 1.429.928 2.857 1.094 4.315.167 1.457.16 2.915-.065 4.336-.007.051.007.095.007.145l-99.668-.718-4.363 2.887h-91.304c.232.623.464 1.24.696 1.856h481.235v-1.856h-100.038zm-657.174 0v1.856h207.483c12.575 0 16.192-1.856 16.192-1.856a26.341 26.341 0 004.69-1.763c10.647-5.213 17.061-17.345 14.024-29.847l-35.508-146.155c-2.87-11.805-13.43-20.108-25.564-20.108H371.53c-17.04 0-29.586 15.968-25.564 32.537l35.509 146.155c2.305 9.492 9.596 16.708 18.67 19.18h-11.56zm288.052 28.984s-.043.34-.145.928h.008c-1.298 7.752-13.112 63.357-86.426 63.357-26.84 0-46.243-4.438-57.042-7.781 3.834 21.958 22.969 38.65 46.01 38.65h141.033c34.921 0 68.994-14.553 68.994-14.553l-10.952 64.937h71.901s8.32-64.937 11.909-108.504c2.101-25.511-16.678-33.698-32.61-36.106h129.357l-8.4 72.349 26.585 4.409 8.915-76.758h95.732l11.133 95.953 27.63 4.575-11.662-100.528h37.19v-1.856H676.158c.304.594.478.928.478.928zm-160.624-.928H388.584v1.856h61.304c-.058.276-.029.566-.109.841l-.246 1.871c-.189 1.247-.254 2.51-.377 3.764l-.21 3.778-.102 1.885-.05.95c.021.32-.21.61.391.994.681-.24.515-.573.616-.878l.167-.935.333-1.864.667-3.72c.16-1.254.384-2.494.493-3.749l.188-1.878c-.021-.355.13-.696.066-1.059h64.326a155.97 155.97 0 01-.029-1.856zm315.21-403.034a1.86 1.86 0 00-1.855-1.856h-27.63a1.86 1.86 0 00-1.855 1.856c0 1.03.834 1.857 1.856 1.857h27.63a1.855 1.855 0 001.855-1.857zm-73.32.007c-.189 1.516.884 2.742 2.399 2.742 1.514 0 2.899-1.226 3.087-2.742.196-1.515-.877-2.748-2.399-2.748-1.507 0-2.892 1.233-3.088 2.748zm-7.988 2.742c-1.515 0-2.595-1.226-2.399-2.742.188-1.515 1.573-2.748 3.088-2.748 1.514 0 2.587 1.233 2.399 2.748-.189 1.516-1.573 2.742-3.088 2.742" fill="#393a3f"/></g><clipPath id="g"><path transform="scale(.24)" d="M1845.602 890.797h2979.555v2382.374H1845.602z" fill-rule="evenodd"/></clipPath><g clip-path="url(#g)"><path d="M1009.764 561.474H994.82l-10.909-41.77h-9.154l10.908 41.77H829.31c-7.893 0-14.293 6.403-14.293 14.307h209.049c0-7.904-6.4-14.307-14.3-14.307zm-505.653-.98h-30.804a3.889 3.889 0 00-3.864 3.438l-24.94 216.212c-.261 2.306 1.544 4.337 3.863 4.337h30.811a3.895 3.895 0 003.864-3.445l24.933-216.205a3.886 3.886 0 00-3.863-4.336zm459.193 75.54h12.503l28.463-18.716 16.54 18.716h9.234l-22.89-27.838-43.85 27.838zm171.873-421.423h-12.249c13.626 0 24.223 11.849 22.723 25.395l-28.739 259.351c-1.283 11.58-11.068 20.348-22.723 20.348h12.25c11.647 0 21.44-8.767 22.722-20.348l28.739-259.351c1.5-13.546-9.104-25.395-22.723-25.395zm-303.954 45.561a1.86 1.86 0 00-1.856-1.856h-27.63a1.86 1.86 0 00-1.855 1.856c0 1.03.834 1.857 1.856 1.857h27.63a1.855 1.855 0 001.855-1.857zm-70.234-2.74c-1.507 0-2.892 1.232-3.088 2.747-.188 1.516.885 2.742 2.4 2.742 1.514 0 2.899-1.226 3.087-2.742.196-1.515-.877-2.748-2.399-2.748zm-10.386 0c-1.515 0-2.9 1.232-3.088 2.747-.196 1.516.884 2.742 2.4 2.742 1.514 0 2.898-1.226 3.087-2.742.188-1.515-.885-2.748-2.4-2.748zm23.179 2.747c-.189 1.516-1.573 2.742-3.088 2.742-1.515 0-2.587-1.226-2.399-2.742.189-1.515 1.573-2.748 3.088-2.748 1.515 0 2.587 1.233 2.399 2.748" fill="#777b85"/></g></svg>