<svg xmlns="http://www.w3.org/2000/svg" viewBox="0 0 25.22 25.22"><defs><style>.cls-1{fill:#fff;}</style></defs><g id="Layer_2" data-name="Layer 2"><g id="Layer_1-2" data-name="Layer 1"><path class="cls-1" d="M0,20.29v3.93a1,1,0,0,0,1,1H4.93a1,1,0,0,0,.7-.29L20.39,10.17a1,1,0,0,0,0-1.42L16.47,4.83a1,1,0,0,0-1.42,0L.29,19.59A1,1,0,0,0,0,20.29Z"/><path class="cls-1" d="M24.51,2.62,22.6.71a2.42,2.42,0,0,0-3.43,0L18,1.9a1,1,0,0,0,0,1.42L21.9,7.25a1,1,0,0,0,1.42,0l1.19-1.2A2.42,2.42,0,0,0,24.51,2.62Z"/></g></g></svg>