<svg xmlns="http://www.w3.org/2000/svg" viewBox="0 0 26.79 26.48"><g id="Layer_2" data-name="Layer 2"><g id="Layer_1-2" data-name="Layer 1"><path d="M17.89,17a1.09,1.09,0,0,1-1.15-1A1.16,1.16,0,0,1,19,16a.52.52,0,0,0,.53.52.52.52,0,0,0,.52-.52,2.08,2.08,0,0,0-1.67-2v-.27a.52.52,0,0,0-.53-.52.52.52,0,0,0-.52.52V14a2.08,2.08,0,0,0-1.67,2,2.12,2.12,0,0,0,2.19,2,1,1,0,1,1-1.15,1,.52.52,0,1,0-1,0,2.07,2.07,0,0,0,1.67,2v.23a.52.52,0,0,0,.52.52.52.52,0,0,0,.53-.52v-.23a2.07,2.07,0,0,0,1.67-2A2.12,2.12,0,0,0,17.89,17Z"/><path d="M23.62,13.91a6.82,6.82,0,0,0-2.78-2.46.52.52,0,0,0-.7.24.53.53,0,0,0,.25.7A5.77,5.77,0,0,1,23,20.28a.52.52,0,0,0,.46.77.51.51,0,0,0,.46-.28,6.77,6.77,0,0,0-.28-6.86Z"/><path d="M18.72,10.78h0a.52.52,0,0,0-.52.52.52.52,0,0,0,.52.53h0a.53.53,0,0,0,0-1.05Z"/><path d="M15.41,22.77a5.76,5.76,0,0,1-2.6-7.89.52.52,0,1,0-.92-.49,6.83,6.83,0,0,0-.8,3.19A6.85,6.85,0,0,0,15,23.72a.64.64,0,0,0,.23.05.53.53,0,0,0,.23-1Z"/><path d="M17.11,23.34h0a.52.52,0,0,0-.52.52.51.51,0,0,0,.52.52h0a.52.52,0,0,0,0-1Z"/><path d="M20.27,9A2.22,2.22,0,0,0,20,8.58H21.4a2.41,2.41,0,1,0,0-4.81H17.21a2.38,2.38,0,0,0,.42-1.36A2.41,2.41,0,0,0,15.23,0H2.41a2.41,2.41,0,1,0,0,4.81H6.6a2.38,2.38,0,0,0,0,2.73H5.23a2.41,2.41,0,0,0-1.49,4.29,2.4,2.4,0,0,0,0,3.76,2.41,2.41,0,0,0,0,3.77,2.38,2.38,0,0,0-.91,1.88,2.41,2.41,0,0,0,2.4,2.41H11.4A8.89,8.89,0,1,0,20.27,9Zm1.13-4.2a1.37,1.37,0,0,1,0,2.73H8.58a1.37,1.37,0,0,1,0-2.73Zm-19-1a1.36,1.36,0,0,1,0-2.72H15.23a1.36,1.36,0,0,1,0,2.72ZM5.23,8.58H18.05a1.36,1.36,0,0,1,.6.14q-.37,0-.75,0a8.89,8.89,0,0,0-6.3,2.61H5.23a1.36,1.36,0,1,1,0-2.72Zm0,3.77h5.48a8.66,8.66,0,0,0-1.35,2.72H5.23a1.36,1.36,0,0,1,0-2.72Zm0,3.77H9.12a8.91,8.91,0,0,0,0,2.72H5.23a1.36,1.36,0,0,1,0-2.72Zm0,6.49a1.37,1.37,0,0,1,0-2.73H9.3a9.07,9.07,0,0,0,1.26,2.73ZM17.9,25.43a7.85,7.85,0,1,1,7.85-7.85A7.86,7.86,0,0,1,17.9,25.43Z"/></g></g></svg>