<svg xmlns="http://www.w3.org/2000/svg" viewBox="0 0 23.12 26.25"><defs><style>.cls-1{fill:#fff;}</style></defs><g id="Layer_2" data-name="Layer 2"><g id="Layer_1-2" data-name="Layer 1"><path class="cls-1" d="M3.08,0H1.54V18.56H0v4.61H1.54v3.08H3.08V23.17H4.61V18.56H3.08Zm0,21.63H1.54V20.09H3.08Z"/><path class="cls-1" d="M23.12,18.56H21.58V0H20V18.56H18.5v4.61H20v3.08h1.54V23.17h1.54Zm-1.54,3.07H20V20.09h1.54Z"/><path class="cls-1" d="M15.43,0H13.89V11.38H12.35V16h1.54V26.25h1.54V16H17V11.38H15.43Zm0,14.46H13.89V12.92h1.54Z"/><path class="cls-1" d="M9.23,0H7.69V2.75H6.15V7.36H7.69V26.25H9.23V7.36h1.53V2.75H9.23Zm0,5.83H7.69V4.29H9.23Z"/></g></g></svg>