<svg xmlns="http://www.w3.org/2000/svg" viewBox="0 0 22.22 31.6"><g id="Layer_2" data-name="Layer 2"><g id="Layer_1-2" data-name="Layer 1"><path d="M11.11,0A11.11,11.11,0,0,0,1.66,17l8.82,14.21a.92.92,0,0,0,.78.44h0a.93.93,0,0,0,.79-.45L20.65,16.8A11.11,11.11,0,0,0,11.11,0Zm8,15.85L11.25,28.9,3.23,16a9.26,9.26,0,1,1,17.14-4.87A9.2,9.2,0,0,1,19.06,15.85Z"/><path d="M11.11,5.55a5.56,5.56,0,1,0,5.55,5.56A5.57,5.57,0,0,0,11.11,5.55Zm0,9.27a3.72,3.72,0,1,1,3.71-3.71A3.72,3.72,0,0,1,11.11,14.82Z"/></g></g></svg>