<svg xmlns="http://www.w3.org/2000/svg" viewBox="0 0 22.64 28.64"><defs><style>.cls-1{isolation:isolate;}.cls-2{fill:#9a9a9a;}</style></defs><g id="Layer_2" data-name="Layer 2"><g id="Layer_1-2" data-name="Layer 1"><g id="_" data-name=" "><g class="cls-1"><path class="cls-2" d="M11.56,17.44a5.88,5.88,0,0,1-1.77,6.25V24c1.61-.24,5.11-.32,5.6-.32h7.25v4.95H0V23.69c7.09-.49,6.49-3.59,5.76-6.25H.81v-2.9H4.59A17.93,17.93,0,0,1,3,8.18C3,3.3,7.21,0,12.73,0c6.61,0,9.18,4.67,9.18,8.42H16.27c0-1.77-1.12-3.18-3.62-3.18-2.3,0-3.83,1.21-3.83,3.22a20.21,20.21,0,0,0,1.65,6.08h7.09v2.9Z"/></g></g></g></g></svg>