<?xml version="1.0" encoding="UTF-8"?>
<svg xmlns="http://www.w3.org/2000/svg" xmlns:xlink="http://www.w3.org/1999/xlink" width="480pt" height="272pt" viewBox="0 0 480 272" version="1.1">
<defs>
<clipPath id="clip1">
  <path d="M 262.019531 99.6875 L 398.804688 99.6875 L 398.804688 271.339844 L 262.019531 271.339844 Z M 262.019531 99.6875 "/>
</clipPath>
</defs>
<g id="surface1">
<path style=" stroke:none;fill-rule:nonzero;fill:rgb(100%,100%,100%);fill-opacity:1;" d="M 0 0 L 479.765625 0 L 479.765625 271.339844 L 0 271.339844 Z M 0 0 "/>
<path style=" stroke:none;fill-rule:nonzero;fill:rgb(98.431373%,78.431373%,67.058824%);fill-opacity:1;" d="M 419.800781 185.648438 L 424.621094 226.449219 C 426.574219 242.992188 414.910156 258.023438 398.480469 260.121094 L 397.03125 185.648438 L 419.800781 185.648438 "/>
<path style=" stroke:none;fill-rule:nonzero;fill:rgb(27.058824%,34.117647%,60.392157%);fill-opacity:1;" d="M 325.589844 249.632812 L 87.710938 249.632812 L 53.113281 0 L 291.003906 0 L 325.589844 249.632812 "/>
<path style=" stroke:none;fill-rule:nonzero;fill:rgb(90.196078%,72.54902%,13.72549%);fill-opacity:1;" d="M 98.90625 178.292969 C 98.90625 178.292969 94.097656 145.011719 120.703125 139.710938 C 147.308594 134.398438 156.441406 149.84375 156.441406 149.84375 L 98.90625 178.292969 "/>
<path style=" stroke:none;fill-rule:nonzero;fill:rgb(98.431373%,78.431373%,67.058824%);fill-opacity:1;" d="M 78.617188 53.257812 L 77.554688 45.46875 C 80.132812 46.875 82.230469 47.578125 83.851562 47.578125 C 84.800781 47.578125 85.511719 47.320312 85.980469 46.785156 C 86.460938 46.261719 86.640625 45.570312 86.519531 44.699219 C 86.429688 44.027344 86.128906 43.414062 85.601562 42.824219 C 85.089844 42.242188 84.230469 41.527344 83.035156 40.691406 C 80.167969 38.695312 78.023438 36.832031 76.617188 35.113281 C 75.210938 33.382812 74.363281 31.449219 74.074219 29.332031 C 73.683594 26.449219 74.261719 24.105469 75.824219 22.289062 C 77.378906 20.46875 79.597656 19.554688 82.464844 19.554688 C 84.585938 19.554688 86.753906 20.023438 88.972656 20.9375 L 89.988281 28.414062 C 87.578125 27.1875 85.679688 26.5625 84.296875 26.5625 C 83.359375 26.5625 82.65625 26.796875 82.175781 27.253906 C 81.707031 27.710938 81.519531 28.335938 81.628906 29.140625 C 81.832031 30.535156 83.292969 32.121094 86.039062 33.863281 C 87.667969 34.898438 89.375 36.363281 91.171875 38.238281 C 92.957031 40.113281 94.019531 42.277344 94.351562 44.753906 C 94.753906 47.632812 94.074219 50.023438 92.332031 51.917969 C 90.582031 53.816406 88.167969 54.753906 85.089844 54.753906 C 82.980469 54.753906 80.824219 54.253906 78.617188 53.257812 "/>
<path style=" stroke:none;fill-rule:nonzero;fill:rgb(98.431373%,78.431373%,67.058824%);fill-opacity:1;" d="M 112.097656 42.300781 C 110.289062 37.332031 108.804688 32.601562 107.621094 28.113281 L 107.523438 28.113281 C 107.554688 32.734375 107.367188 37.457031 106.953125 42.300781 Z M 124.21875 53.882812 L 116.382812 53.882812 L 114.363281 48.304688 L 106.40625 48.304688 L 105.847656 53.882812 L 98.167969 53.882812 L 102.398438 20.492188 L 110.859375 20.492188 L 124.21875 53.882812 "/>
<path style=" stroke:none;fill-rule:nonzero;fill:rgb(98.431373%,78.431373%,67.058824%);fill-opacity:1;" d="M 118.558594 20.492188 L 126.417969 20.492188 L 132.535156 35.246094 C 133.714844 38.160156 134.585938 40.660156 135.15625 42.722656 L 135.257812 42.722656 C 135.257812 40.902344 135.324219 39.410156 135.457031 38.246094 L 137.613281 20.492188 L 145.667969 20.492188 L 140.257812 53.882812 L 133.269531 53.882812 L 118.558594 20.492188 "/>
<path style=" stroke:none;fill-rule:nonzero;fill:rgb(98.431373%,78.431373%,67.058824%);fill-opacity:1;" d="M 149.722656 20.492188 L 164.957031 20.492188 L 165.925781 27.589844 L 158.226562 27.589844 L 159.0625 33.738281 L 165.746094 33.738281 L 166.695312 40.667969 L 160.011719 40.667969 L 160.835938 46.753906 L 168.59375 46.753906 L 169.566406 53.882812 L 154.273438 53.882812 L 149.722656 20.492188 "/>
<path style=" stroke:none;fill-rule:nonzero;fill:rgb(98.431373%,78.431373%,67.058824%);fill-opacity:1;" d="M 81.832031 59.183594 L 91.363281 59.183594 C 93.707031 66.382812 95.613281 72.589844 97.109375 77.769531 L 97.222656 72.589844 C 97.265625 70.582031 97.355469 68.605469 97.476562 66.683594 L 97.925781 59.183594 L 107.644531 59.183594 L 115.980469 92.578125 L 108.527344 92.578125 L 103.371094 69.621094 L 101.863281 92.578125 L 96.761719 92.578125 L 88.75 69.566406 L 89.957031 92.578125 L 82.8125 92.578125 L 81.832031 59.183594 "/>
<path style=" stroke:none;fill-rule:nonzero;fill:rgb(98.431373%,78.431373%,67.058824%);fill-opacity:1;" d="M 128.816406 65.835938 C 126.09375 65.835938 125.179688 69.050781 126.050781 75.46875 C 126.617188 79.609375 127.332031 82.367188 128.214844 83.75 C 129.097656 85.132812 130.179688 85.824219 131.496094 85.824219 C 132.902344 85.824219 133.882812 85.132812 134.453125 83.75 C 135.023438 82.367188 135.023438 79.652344 134.476562 75.625 C 133.582031 69.105469 131.695312 65.835938 128.816406 65.835938 Z M 132.855469 93.402344 C 128.839844 93.402344 125.570312 91.863281 123.046875 88.773438 C 120.511719 85.667969 118.851562 81.207031 118.058594 75.367188 C 117.320312 69.976562 117.800781 65.78125 119.507812 62.769531 C 121.207031 59.765625 123.949219 58.257812 127.722656 58.257812 C 131.753906 58.257812 135.042969 59.765625 137.589844 62.789062 C 140.121094 65.804688 141.785156 70.113281 142.542969 75.714844 C 143.316406 81.328125 142.855469 85.667969 141.183594 88.773438 C 139.507812 91.863281 136.730469 93.402344 132.855469 93.402344 "/>
<path style=" stroke:none;fill-rule:nonzero;fill:rgb(98.431373%,78.431373%,67.058824%);fill-opacity:1;" d="M 142.945312 59.183594 L 160.925781 59.183594 L 161.964844 66.820312 L 156.761719 66.820312 L 160.289062 92.578125 L 152.65625 92.578125 L 149.140625 66.820312 L 143.996094 66.820312 L 142.945312 59.183594 "/>
<path style=" stroke:none;fill-rule:nonzero;fill:rgb(98.431373%,78.431373%,67.058824%);fill-opacity:1;" d="M 165.589844 59.183594 L 173.125 59.183594 L 174.820312 71.574219 L 181.507812 71.574219 L 179.820312 59.183594 L 187.355469 59.183594 L 191.910156 92.578125 L 184.375 92.578125 L 182.476562 78.695312 L 175.792969 78.695312 L 177.691406 92.578125 L 170.15625 92.578125 L 165.589844 59.183594 "/>
<path style=" stroke:none;fill-rule:nonzero;fill:rgb(98.431373%,78.431373%,67.058824%);fill-opacity:1;" d="M 194.464844 59.183594 L 209.699219 59.183594 L 210.667969 66.292969 L 202.96875 66.292969 L 203.804688 72.445312 L 210.492188 72.445312 L 211.441406 79.375 L 204.753906 79.375 L 205.582031 85.445312 L 213.335938 85.445312 L 214.320312 92.578125 L 199.027344 92.578125 L 194.464844 59.183594 "/>
<path style=" stroke:none;fill-rule:nonzero;fill:rgb(98.431373%,78.431373%,67.058824%);fill-opacity:1;" d="M 224.105469 65.636719 L 225.191406 73.570312 C 228.515625 73.503906 230.023438 72.320312 229.699219 70.042969 C 229.496094 68.492188 228.960938 67.378906 228.089844 66.71875 C 227.230469 66.050781 225.902344 65.691406 224.105469 65.636719 Z M 215.691406 59.183594 L 224.464844 59.183594 C 228.011719 59.183594 230.9375 60.101562 233.246094 61.941406 C 235.546875 63.773438 236.917969 66.261719 237.34375 69.417969 C 237.578125 71.027344 237.398438 72.601562 236.832031 74.105469 C 236.25 75.613281 235.269531 76.753906 233.882812 77.523438 L 241.964844 92.578125 L 234.007812 92.578125 L 225.835938 77.367188 L 225.714844 77.367188 L 227.789062 92.578125 L 220.257812 92.578125 L 215.691406 59.183594 "/>
<path style=" stroke:none;fill-rule:nonzero;fill:rgb(98.431373%,78.431373%,67.058824%);fill-opacity:1;" d="M 84.710938 97.878906 L 99.957031 97.878906 L 100.914062 104.988281 L 93.214844 104.988281 L 94.050781 111.136719 L 100.746094 111.136719 L 101.683594 118.082031 L 95 118.082031 L 95.824219 124.152344 L 103.59375 124.152344 L 104.566406 131.285156 L 89.273438 131.285156 L 84.710938 97.878906 "/>
<path style=" stroke:none;fill-rule:nonzero;fill:rgb(98.431373%,78.431373%,67.058824%);fill-opacity:1;" d="M 121.605469 119.699219 C 119.800781 114.730469 118.304688 110 117.132812 105.511719 L 117.03125 105.511719 C 117.066406 110.132812 116.875 114.867188 116.460938 119.699219 Z M 133.726562 131.285156 L 125.894531 131.285156 L 123.863281 125.703125 L 115.902344 125.703125 L 115.355469 131.285156 L 107.679688 131.285156 L 111.910156 97.878906 L 120.355469 97.878906 L 133.726562 131.285156 "/>
<path style=" stroke:none;fill-rule:nonzero;fill:rgb(98.431373%,78.431373%,67.058824%);fill-opacity:1;" d="M 141.382812 104.339844 L 142.464844 112.265625 C 145.792969 112.210938 147.300781 111.027344 146.988281 108.738281 C 146.761719 107.1875 146.226562 106.082031 145.367188 105.414062 C 144.507812 104.742188 143.179688 104.398438 141.382812 104.339844 Z M 132.96875 97.878906 L 141.742188 97.878906 C 145.289062 97.878906 148.214844 98.804688 150.523438 100.636719 C 152.835938 102.464844 154.195312 104.964844 154.632812 108.113281 C 154.855469 109.730469 154.675781 111.292969 154.097656 112.8125 C 153.527344 114.320312 152.542969 115.457031 151.160156 116.226562 L 159.242188 131.285156 L 151.285156 131.285156 L 143.101562 116.070312 L 142.980469 116.070312 L 145.066406 131.285156 L 137.535156 131.285156 L 132.96875 97.878906 "/>
<path style=" stroke:none;fill-rule:nonzero;fill:rgb(98.431373%,78.431373%,67.058824%);fill-opacity:1;" d="M 156.441406 97.878906 L 174.410156 97.878906 L 175.457031 105.511719 L 170.257812 105.511719 L 173.785156 131.285156 L 166.136719 131.285156 L 162.621094 105.511719 L 157.476562 105.511719 L 156.441406 97.878906 "/>
<path style=" stroke:none;fill-rule:nonzero;fill:rgb(98.431373%,78.431373%,67.058824%);fill-opacity:1;" d="M 179.085938 97.878906 L 186.617188 97.878906 L 188.316406 110.269531 L 195 110.269531 L 193.316406 97.878906 L 200.847656 97.878906 L 205.402344 131.285156 L 197.867188 131.285156 L 195.972656 117.398438 L 189.285156 117.398438 L 191.183594 131.285156 L 183.648438 131.285156 L 179.085938 97.878906 "/>
<path style=" stroke:none;fill-rule:nonzero;fill:rgb(98.431373%,78.431373%,67.058824%);fill-opacity:1;" d="M 352.777344 99.878906 L 302.378906 99.878906 L 303.515625 61.117188 L 348.671875 61.117188 L 352.777344 99.878906 "/>
<path style=" stroke:none;fill-rule:nonzero;fill:rgb(98.431373%,78.431373%,67.058824%);fill-opacity:1;" d="M 348.28125 63.28125 C 345.523438 81.753906 330.089844 94.730469 313.804688 92.277344 C 297.511719 89.832031 286.539062 72.867188 289.285156 54.398438 C 292.03125 35.9375 307.476562 22.945312 323.761719 25.402344 C 340.042969 27.855469 351.027344 44.820312 348.28125 63.28125 "/>
<path style=" stroke:none;fill-rule:nonzero;fill:rgb(40.392157%,53.333333%,80.784314%);fill-opacity:1;" d="M 265.347656 99.777344 C 251.238281 99.777344 239.207031 110.054688 236.917969 124.0625 L 215.390625 185.648438 L 282.789062 185.648438 L 308.292969 99.777344 L 265.347656 99.777344 "/>
<path style=" stroke:none;fill-rule:nonzero;fill:rgb(98.431373%,78.431373%,67.058824%);fill-opacity:1;" d="M 352.777344 99.878906 C 352.777344 103.636719 341.507812 106.683594 327.578125 106.683594 C 313.671875 106.683594 302.378906 103.636719 302.378906 99.878906 C 302.378906 96.117188 313.671875 93.058594 327.578125 93.058594 C 341.507812 93.058594 352.777344 96.117188 352.777344 99.878906 "/>
<path style=" stroke:none;fill-rule:nonzero;fill:rgb(98.431373%,78.431373%,67.058824%);fill-opacity:1;" d="M 290.289062 53.882812 C 290.289062 53.882812 284.644531 59.6875 284.644531 62.445312 C 284.644531 65.199219 291.238281 67.96875 291.238281 67.96875 L 290.289062 53.882812 "/>
<g clip-path="url(#clip1)" clip-rule="nonzero">
<path style=" stroke:none;fill-rule:nonzero;fill:rgb(40.392157%,53.333333%,80.784314%);fill-opacity:1;" d="M 262.164062 271.507812 L 398.707031 271.507812 L 395.714844 118.480469 C 395.511719 108.101562 387.085938 99.777344 376.761719 99.777344 L 269.53125 99.777344 L 262.164062 271.507812 "/>
</g>
<path style=" stroke:none;fill-rule:nonzero;fill:rgb(40.392157%,53.333333%,80.784314%);fill-opacity:1;" d="M 415.144531 132.8125 L 419.800781 185.648438 L 352.398438 185.648438 L 352.398438 99.777344 L 379.296875 99.777344 C 397.933594 99.777344 413.503906 114.117188 415.144531 132.8125 "/>
<path style=" stroke:none;fill-rule:nonzero;fill:rgb(90.196078%,72.54902%,13.72549%);fill-opacity:1;" d="M 294.722656 39.753906 C 294.722656 39.753906 281.875 19.019531 300.523438 10.335938 C 319.175781 1.664062 330.3125 18.773438 345.960938 22.398438 C 361.597656 26.027344 353.226562 54.453125 352.398438 60.925781 C 351.574219 67.398438 350.234375 75.882812 350.234375 75.882812 L 330.433594 75.882812 C 330.433594 75.882812 318.28125 66.796875 315.667969 61.351562 C 313.070312 55.902344 310.054688 46.617188 310.054688 46.617188 L 308.292969 37.1875 C 308.292969 37.1875 303.257812 41.574219 294.722656 39.753906 "/>
<path style=" stroke:none;fill-rule:nonzero;fill:rgb(40.392157%,53.333333%,80.784314%);fill-opacity:1;" d="M 167.914062 132.5 C 167.914062 132.5 183.136719 108.917969 185.589844 109.117188 C 188.035156 109.320312 195.738281 113.238281 196.25 115.367188 C 196.773438 117.5 175.9375 139.710938 175.9375 139.710938 L 167.914062 132.5 "/>
<path style=" stroke:none;fill-rule:nonzero;fill:rgb(90.196078%,72.54902%,13.72549%);fill-opacity:1;" d="M 122.03125 173.75 C 122.03125 173.75 109.710938 185.714844 103.539062 186.917969 L 110.457031 194.039062 L 114.820312 192.367188 L 111.363281 195.390625 L 116.328125 199.933594 L 130.457031 192.367188 L 132.867188 187.980469 L 131.964844 191.761719 L 145.503906 185.648438 L 162.054688 167.097656 L 122.03125 173.75 "/>
<path style=" stroke:none;fill-rule:nonzero;fill:rgb(40.392157%,53.333333%,80.784314%);fill-opacity:1;" d="M 151.820312 154.6875 L 129.261719 162.253906 L 122.03125 173.75 L 128.960938 180.714844 L 170.46875 164.363281 L 151.820312 154.6875 "/>
<path style=" stroke:none;fill-rule:nonzero;fill:rgb(98.431373%,78.431373%,67.058824%);fill-opacity:1;" d="M 191.082031 166.585938 C 191.082031 166.585938 186.226562 140.089844 181.707031 136.539062 C 177.175781 132.96875 166.917969 132.421875 166.917969 132.421875 C 166.917969 132.421875 165.804688 129.753906 160.703125 131.261719 C 155.601562 132.769531 153.492188 138.570312 153.492188 138.570312 C 153.492188 138.570312 146.617188 138.695312 145.179688 141.09375 C 143.75 143.480469 144.050781 148.425781 144.050781 148.425781 C 144.050781 148.425781 142.230469 149.375 141.429688 152.613281 C 140.625 155.859375 140.414062 163.167969 140.992188 166.328125 C 141.574219 169.488281 148.125 167.445312 148.125 167.445312 C 148.125 167.445312 149.664062 184.429688 162.210938 185.355469 C 162.210938 185.355469 190.121094 182.007812 191.082031 166.585938 "/>
<path style=" stroke:none;fill-rule:nonzero;fill:rgb(98.431373%,78.431373%,67.058824%);fill-opacity:1;" d="M 215.390625 185.648438 L 211.117188 197.878906 L 188.515625 160.835938 L 157.007812 183.90625 L 178.996094 243.738281 C 186.863281 257.847656 201.683594 266.585938 217.757812 266.585938 C 234.308594 266.585938 249.488281 257.332031 257.152344 242.589844 L 263.960938 229.464844 L 282.980469 185.648438 L 215.390625 185.648438 "/>
<path style=" stroke:none;fill-rule:nonzero;fill:rgb(15.686275%,8.235294%,8.627451%);fill-opacity:1;" d="M 293.046875 50.511719 C 292.96875 51.585938 292.386719 52.410156 291.753906 52.355469 C 291.117188 52.308594 290.667969 51.40625 290.746094 50.335938 C 290.835938 49.273438 291.417969 48.449219 292.054688 48.503906 C 292.679688 48.550781 293.136719 49.453125 293.046875 50.511719 "/>
<path style=" stroke:none;fill-rule:nonzero;fill:rgb(15.686275%,8.235294%,8.627451%);fill-opacity:1;" d="M 299.128906 103.394531 C 300.121094 103.394531 355.367188 103.394531 355.367188 103.394531 C 355.582031 103.394531 355.746094 103.226562 355.746094 103.023438 C 355.746094 102.8125 355.582031 102.644531 355.367188 102.644531 C 355.367188 102.644531 300.121094 102.644531 299.128906 102.644531 C 298.917969 102.644531 298.75 102.8125 298.75 103.023438 C 298.75 103.226562 298.917969 103.394531 299.128906 103.394531 Z M 401.136719 151.929688 C 401.136719 151.929688 401.117188 152.230469 401.058594 152.769531 C 400.902344 154.664062 400.445312 159.507812 399.699219 164.574219 C 398.972656 169.664062 397.945312 175 396.683594 177.835938 C 396.605469 178.023438 396.683594 178.246094 396.875 178.324219 C 397.066406 178.414062 397.289062 178.324219 397.367188 178.148438 C 398.125 176.429688 398.773438 173.949219 399.332031 171.183594 C 401.015625 162.890625 401.875 151.996094 401.886719 151.988281 C 401.898438 151.785156 401.742188 151.597656 401.539062 151.585938 C 401.339844 151.5625 401.148438 151.71875 401.136719 151.929688 Z M 156.851562 184.253906 L 160.847656 185.992188 C 161.039062 186.070312 161.261719 185.980469 161.339844 185.792969 C 161.417969 185.601562 161.328125 185.378906 161.136719 185.300781 L 157.152344 183.558594 C 156.964844 183.480469 156.742188 183.570312 156.664062 183.761719 C 156.585938 183.949219 156.664062 184.175781 156.851562 184.253906 Z M 143.515625 165.757812 C 143.539062 165.746094 144.332031 165.726562 145.3125 165.347656 C 146.285156 164.976562 147.445312 164.242188 148.113281 162.8125 C 148.203125 162.621094 148.125 162.398438 147.933594 162.320312 C 147.746094 162.230469 147.535156 162.308594 147.445312 162.5 C 146.875 163.695312 145.902344 164.320312 145.042969 164.652344 C 144.609375 164.808594 144.21875 164.910156 143.929688 164.957031 C 143.792969 164.976562 143.671875 164.988281 143.59375 165 L 143.480469 165 C 143.28125 165.011719 143.113281 165.179688 143.125 165.390625 C 143.136719 165.601562 143.304688 165.757812 143.515625 165.757812 Z M 148.160156 159.476562 C 148.160156 159.507812 147.410156 161.652344 147.398438 164.417969 C 147.398438 165.402344 147.5 166.460938 147.769531 167.535156 C 147.8125 167.734375 148.011719 167.855469 148.214844 167.800781 C 148.414062 167.757812 148.539062 167.554688 148.480469 167.34375 C 148.246094 166.363281 148.148438 165.355469 148.148438 164.417969 C 148.148438 163.101562 148.324219 161.917969 148.503906 161.070312 C 148.59375 160.648438 148.695312 160.3125 148.761719 160.078125 C 148.785156 159.957031 148.816406 159.878906 148.828125 159.808594 L 148.863281 159.722656 C 148.929688 159.53125 148.828125 159.308594 148.628906 159.242188 C 148.4375 159.175781 148.226562 159.285156 148.160156 159.476562 Z M 144.308594 148.695312 C 144.386719 148.628906 146.292969 146.875 150.335938 146.875 C 151.964844 146.875 153.949219 147.164062 156.316406 147.96875 C 156.507812 148.035156 156.71875 147.933594 156.785156 147.746094 C 156.851562 147.542969 156.753906 147.332031 156.5625 147.265625 C 154.128906 146.429688 152.054688 146.128906 150.335938 146.128906 C 145.925781 146.128906 143.839844 148.113281 143.792969 148.160156 C 143.648438 148.304688 143.636719 148.539062 143.785156 148.683594 C 143.929688 148.839844 144.164062 148.839844 144.308594 148.695312 Z M 166.640625 132.691406 C 166.640625 132.691406 166.707031 132.710938 166.839844 132.757812 C 167.746094 133.035156 171.597656 134.363281 174.207031 136.832031 C 174.363281 136.964844 174.597656 136.953125 174.730469 136.808594 C 174.878906 136.652344 174.867188 136.417969 174.722656 136.273438 C 171.539062 133.304688 166.875 131.988281 166.839844 131.976562 C 166.652344 131.917969 166.441406 132.03125 166.382812 132.230469 C 166.328125 132.433594 166.441406 132.632812 166.640625 132.691406 Z M 153.515625 138.941406 C 153.515625 138.941406 153.550781 138.929688 153.628906 138.929688 C 153.839844 138.90625 154.351562 138.882812 155.066406 138.882812 C 156.773438 138.882812 159.621094 139.0625 162.066406 140.054688 C 162.253906 140.132812 162.464844 140.035156 162.542969 139.84375 C 162.621094 139.652344 162.535156 139.441406 162.332031 139.351562 C 159.742188 138.316406 156.832031 138.136719 155.066406 138.136719 C 154.085938 138.136719 153.460938 138.191406 153.460938 138.191406 C 153.246094 138.214844 153.101562 138.394531 153.113281 138.59375 C 153.136719 138.804688 153.316406 138.949219 153.515625 138.941406 Z M 205.738281 211.136719 L 211.460938 198.023438 C 211.539062 197.835938 211.449219 197.613281 211.273438 197.535156 C 211.082031 197.457031 210.859375 197.535156 210.78125 197.722656 L 205.066406 210.835938 C 204.976562 211.027344 205.066406 211.25 205.257812 211.328125 C 205.445312 211.40625 205.660156 211.316406 205.738281 211.136719 Z M 397.398438 185.648438 L 397.398438 150.425781 C 397.398438 150.222656 397.230469 150.054688 397.03125 150.054688 C 396.820312 150.054688 396.664062 150.222656 396.664062 150.425781 L 396.664062 185.648438 C 396.664062 185.847656 396.820312 186.027344 397.03125 186.027344 C 397.230469 186.027344 397.398438 185.847656 397.398438 185.648438 Z M 293.949219 149.074219 L 281.214844 185.523438 C 281.148438 185.714844 281.25 185.9375 281.449219 186.003906 C 281.640625 186.070312 281.851562 185.960938 281.917969 185.769531 L 294.652344 149.320312 C 294.722656 149.128906 294.632812 148.90625 294.429688 148.839844 C 294.242188 148.773438 294.027344 148.882812 293.949219 149.074219 Z M 302.523438 88.246094 C 302.554688 88.269531 306.015625 90.648438 311.539062 90.648438 C 312.464844 90.648438 313.449219 90.582031 314.476562 90.425781 C 314.675781 90.390625 314.808594 90.199219 314.789062 90 C 314.753906 89.800781 314.566406 89.652344 314.363281 89.6875 C 313.371094 89.832031 312.433594 89.898438 311.539062 89.898438 C 308.882812 89.898438 306.730469 89.320312 305.234375 88.75 C 304.496094 88.472656 303.917969 88.179688 303.527344 87.96875 C 303.335938 87.867188 303.179688 87.777344 303.082031 87.722656 L 302.980469 87.644531 L 302.945312 87.632812 C 302.777344 87.511719 302.542969 87.554688 302.421875 87.722656 C 302.308594 87.890625 302.355469 88.125 302.523438 88.246094 Z M 291.195312 44.886719 L 291.214844 44.910156 C 291.339844 45.023438 291.964844 45.558594 292.566406 46.429688 C 293.167969 47.308594 293.75 48.492188 293.816406 49.886719 C 293.828125 50.089844 294.007812 50.257812 294.207031 50.246094 C 294.410156 50.234375 294.566406 50.054688 294.554688 49.855469 C 294.476562 48.160156 293.75 46.785156 293.046875 45.824219 C 292.355469 44.867188 291.675781 44.320312 291.664062 44.308594 C 291.496094 44.175781 291.261719 44.207031 291.136719 44.363281 C 291.003906 44.53125 291.039062 44.753906 291.195312 44.886719 Z M 295.300781 69.410156 C 294.195312 71.171875 293.179688 72.121094 292.464844 72.632812 C 292.109375 72.890625 291.820312 73.035156 291.628906 73.113281 C 291.527344 73.148438 291.449219 73.167969 291.417969 73.191406 L 291.363281 73.203125 L 291.382812 73.347656 L 291.363281 73.203125 L 291.382812 73.347656 L 291.363281 73.203125 C 291.160156 73.238281 291.027344 73.425781 291.058594 73.636719 C 291.105469 73.839844 291.292969 73.972656 291.496094 73.941406 C 291.597656 73.929688 293.636719 73.480469 295.925781 69.800781 C 296.039062 69.632812 295.980469 69.398438 295.816406 69.285156 C 295.636719 69.175781 295.414062 69.230469 295.300781 69.410156 "/>
<path style=" stroke:none;fill-rule:nonzero;fill:rgb(98.431373%,78.431373%,67.058824%);fill-opacity:1;" d="M 317.378906 55.503906 C 317.378906 59.710938 315 63.125 312.066406 63.125 C 309.128906 63.125 306.742188 59.710938 306.742188 55.503906 C 306.742188 51.285156 309.128906 47.855469 312.066406 47.855469 C 315 47.855469 317.378906 51.285156 317.378906 55.503906 "/>
<path style=" stroke:none;fill-rule:nonzero;fill:rgb(15.686275%,8.235294%,8.627451%);fill-opacity:1;" d="M 309.976562 52.734375 L 309.988281 52.722656 C 310.023438 52.667969 310.246094 52.355469 310.613281 52.066406 C 310.980469 51.773438 311.472656 51.519531 312.085938 51.519531 C 312.332031 51.519531 312.589844 51.550781 312.867188 51.652344 C 313.257812 51.773438 313.773438 52.175781 314.164062 52.835938 C 314.574219 53.480469 314.867188 54.375 314.867188 55.503906 C 314.867188 56.617188 314.574219 57.613281 314.183594 58.304688 C 313.984375 58.636719 313.761719 58.917969 313.550781 59.085938 C 313.335938 59.253906 313.136719 59.332031 312.992188 59.332031 C 312.777344 59.332031 312.621094 59.488281 312.621094 59.699219 C 312.621094 59.898438 312.777344 60.066406 312.992188 60.066406 C 313.359375 60.066406 313.707031 59.910156 314.019531 59.664062 C 314.910156 58.929688 315.601562 57.367188 315.613281 55.503906 C 315.613281 54.242188 315.277344 53.214844 314.800781 52.433594 C 314.320312 51.664062 313.714844 51.136719 313.101562 50.9375 C 312.746094 50.816406 312.410156 50.769531 312.085938 50.769531 C 311.207031 50.769531 310.511719 51.171875 310.054688 51.550781 C 309.609375 51.941406 309.375 52.308594 309.351562 52.332031 C 309.242188 52.5 309.296875 52.734375 309.464844 52.847656 C 309.644531 52.957031 309.878906 52.902344 309.976562 52.734375 "/>
</g>
</svg>
