<svg xmlns="http://www.w3.org/2000/svg" viewBox="0 0 27.36 27.36"><g id="Layer_2" data-name="Layer 2"><g id="Layer_1-2" data-name="Layer 1"><path d="M25.8,14.38l-1.71-.64a.43.43,0,0,0-.55.25.42.42,0,0,0,.25.55l.57.21a22.46,22.46,0,0,1-2.28.48,8.85,8.85,0,0,0,.15-1.55,8.76,8.76,0,0,0-.15-1.55c3.59.57,4.42,1.32,4.42,1.55a.43.43,0,0,0,.86,0c0-1.08-1.85-1.9-5.49-2.45a8.6,8.6,0,0,0-5.74-5.74C15.68,2.47,14.92,0,13.68,0c-1.08,0-1.9,1.85-2.45,5.49a8.56,8.56,0,0,0-5.74,5.74C1.85,11.78,0,12.6,0,13.68c0,1.24,2.47,2,5.49,2.45a8.6,8.6,0,0,0,5.74,5.74c.55,3.64,1.37,5.49,2.45,5.49a.43.43,0,0,0,0-.86c-.23,0-1-.83-1.55-4.42a8.76,8.76,0,0,0,1.55.15,8.85,8.85,0,0,0,1.55-.15,22.46,22.46,0,0,1-.48,2.28l-.21-.57a.43.43,0,1,0-.8.3l.64,1.71a.44.44,0,0,0,.26.27.41.41,0,0,0,.42-.1l1.46-1.28a.43.43,0,0,0,0-.61.44.44,0,0,0-.6,0l-.31.28c.18-.72.34-1.54.48-2.45a8.64,8.64,0,0,0,5.74-5.74c.91-.14,1.73-.3,2.44-.48L24,16a.44.44,0,0,0,0,.6.38.38,0,0,0,.28.11.44.44,0,0,0,.33-.15L26,15.06a.46.46,0,0,0,.1-.36.44.44,0,0,0-.27-.32ZM13.68.85c.42,0,1.07,1.53,1.54,4.43a7.81,7.81,0,0,0-1.54-.15,7.91,7.91,0,0,0-1.55.15C12.7,1.69,13.45.85,13.68.85Zm0,5.13a7.72,7.72,0,0,1,1.68.19,56.36,56.36,0,0,1,.46,7.51c0,.71,0,1.41,0,2.1-.69,0-1.39,0-2.1,0a56.36,56.36,0,0,1-7.51-.46A7.68,7.68,0,0,1,13.68,6ZM.85,13.68c0-.23.84-1,4.43-1.55a7.91,7.91,0,0,0-.15,1.55,7.81,7.81,0,0,0,.15,1.54C2.38,14.75.85,14.1.85,13.68Zm12.83,7.69a7.69,7.69,0,0,1-7.24-5.12,62.37,62.37,0,0,0,7.24.42q1.05,0,2.07,0c-.07,1.64-.21,3.18-.39,4.54a7.72,7.72,0,0,1-1.68.19Zm2.58-.45c.16-1.31.28-2.77.35-4.31,1.54-.07,3-.19,4.31-.35A7.73,7.73,0,0,1,16.26,20.92Zm.38-5.17q0-1,0-2.07a62.37,62.37,0,0,0-.42-7.24,7.66,7.66,0,0,1,4.93,8.92c-1.36.18-2.9.32-4.54.39Z"/></g></g></svg>