<svg xmlns="http://www.w3.org/2000/svg" viewBox="0 0 37.4 37.4"><defs><style>.cls-1{fill:#fff;}</style></defs><g id="Layer_2" data-name="Layer 2"><g id="Layer_1-2" data-name="Layer 1"><path class="cls-1" d="M19.87,37.4H17.53A3.45,3.45,0,0,1,14.08,34v-.79a15.44,15.44,0,0,1-2.34-1l-.56.56a3.43,3.43,0,0,1-4.87,0L4.65,31.1a3.43,3.43,0,0,1,0-4.87l.56-.57a15,15,0,0,1-1-2.34h-.8A3.45,3.45,0,0,1,0,19.87V17.53a3.45,3.45,0,0,1,3.44-3.45h.8a15.39,15.39,0,0,1,1-2.34l-.56-.56a3.43,3.43,0,0,1,0-4.87L6.31,4.65a3.44,3.44,0,0,1,4.87,0l.56.56a15.39,15.39,0,0,1,2.34-1v-.8A3.45,3.45,0,0,1,17.53,0h2.34a3.45,3.45,0,0,1,3.45,3.44v.8a15,15,0,0,1,2.34,1l.57-.56a3.43,3.43,0,0,1,4.87,0l1.65,1.66a3.43,3.43,0,0,1,0,4.87l-.56.56a15.44,15.44,0,0,1,1,2.34H34a3.45,3.45,0,0,1,3.44,3.45v2.34A3.45,3.45,0,0,1,34,23.32h-.79a15,15,0,0,1-1,2.34l.56.57a3.43,3.43,0,0,1,0,4.87l-1.66,1.65a3.42,3.42,0,0,1-4.86,0l-.57-.56a15,15,0,0,1-2.34,1V34A3.45,3.45,0,0,1,19.87,37.4Zm-7.76-7.51a12.7,12.7,0,0,0,3.34,1.39,1.1,1.1,0,0,1,.83,1.06V34a1.25,1.25,0,0,0,1.25,1.25h2.34A1.25,1.25,0,0,0,21.13,34V32.34A1.09,1.09,0,0,1,22,31.28a12.9,12.9,0,0,0,3.35-1.39,1.1,1.1,0,0,1,1.33.17l1.15,1.14a1.24,1.24,0,0,0,1.76,0l1.67-1.66a1.26,1.26,0,0,0,0-1.77l-1.15-1.15a1.1,1.1,0,0,1-.17-1.33A12.9,12.9,0,0,0,31.28,22a1.09,1.09,0,0,1,1.06-.82H34a1.25,1.25,0,0,0,1.25-1.26V17.53A1.25,1.25,0,0,0,34,16.28H32.34a1.1,1.1,0,0,1-1.06-.83,12.7,12.7,0,0,0-1.39-3.34,1.12,1.12,0,0,1,.17-1.34l1.15-1.14a1.26,1.26,0,0,0,0-1.77L29.55,6.2a1.25,1.25,0,0,0-1.77,0L26.63,7.34a1.08,1.08,0,0,1-1.33.17A13.26,13.26,0,0,0,22,6.12a1.08,1.08,0,0,1-.82-1.06V3.44a1.25,1.25,0,0,0-1.26-1.25H17.53a1.25,1.25,0,0,0-1.25,1.25V5.06a1.09,1.09,0,0,1-.83,1.06,13,13,0,0,0-3.34,1.39,1.09,1.09,0,0,1-1.34-.17L9.63,6.2a1.24,1.24,0,0,0-1.77,0L6.2,7.86a1.25,1.25,0,0,0,0,1.77l1.14,1.14a1.09,1.09,0,0,1,.17,1.34,13,13,0,0,0-1.39,3.34,1.09,1.09,0,0,1-1.06.83H3.44a1.25,1.25,0,0,0-1.25,1.25v2.34a1.25,1.25,0,0,0,1.25,1.26H5.06A1.08,1.08,0,0,1,6.12,22,13.26,13.26,0,0,0,7.51,25.3a1.08,1.08,0,0,1-.17,1.33L6.2,27.78a1.23,1.23,0,0,0,0,1.76L7.86,31.2a1.25,1.25,0,0,0,1.77,0l1.14-1.15a1.12,1.12,0,0,1,1.34-.17Z"/><path class="cls-1" d="M18.7,26.84a8.14,8.14,0,1,1,8.14-8.14A8.15,8.15,0,0,1,18.7,26.84Zm0-14.09a5.95,5.95,0,1,0,5.95,5.95,6,6,0,0,0-5.95-5.95Z"/></g></g></svg>