<svg xmlns="http://www.w3.org/2000/svg" viewBox="0 0 24.49 24.5"><defs><style>.cls-1{fill:#fff;}</style></defs><g id="Layer_2" data-name="Layer 2"><g id="Layer_1-2" data-name="Layer 1"><path class="cls-1" d="M12.27,24.5c-2.33,0-4.67,0-7,0C2,24.47,0,22.48,0,19.17q0-6.95,0-13.9C0,2,2,0,5.31,0h5.06c.89,0,1.76,0,1.86,1.19.07.85-.55,1.22-1.92,1.23H5.37c-2,0-2.94,1-2.94,3q0,6.84,0,13.67c0,2,.93,3,2.93,3,4.59,0,9.19,0,13.78,0,2,0,2.92-1,2.93-3,0-1.72,0-3.45,0-5.17,0-.85.17-1.61,1.18-1.62s1.25.68,1.24,1.56c0,1.91,0,3.83,0,5.74a4.79,4.79,0,0,1-5,4.9c-2.41,0-4.82,0-7.24,0Z"/><path class="cls-1" d="M20.28,2.42H16.22c-.83,0-1.47-.26-1.47-1.21S15.38,0,16.21,0C18.47,0,20.73,0,23,0c1.07,0,1.52.49,1.51,1.54,0,2.26,0,4.52,0,6.77,0,.84-.31,1.45-1.25,1.43s-1.16-.6-1.17-1.38V4.26c-.41.37-.67.57-.89.8q-3.9,3.89-7.79,7.79c-.58.58-1.21.85-1.93.31s-.53-1.32.22-2.08L19.3,3.46C19.57,3.19,19.82,2.91,20.28,2.42Z"/></g></g></svg>