<?xml version="1.0" encoding="UTF-8"?>
<svg xmlns="http://www.w3.org/2000/svg" xmlns:xlink="http://www.w3.org/1999/xlink" width="480pt" height="270pt" viewBox="0 0 480 270" version="1.1">
<defs>
<clipPath id="clip1">
  <path d="M 203 150.445312 L 236.667969 150.445312 L 236.667969 270 L 203 270 Z M 203 150.445312 "/>
</clipPath>
<clipPath id="clip2">
  <path d="M 243.066406 0 L 353.359375 0 L 353.359375 90.710938 L 243.066406 90.710938 Z M 243.066406 0 "/>
</clipPath>
</defs>
<g id="surface1">
<rect x="0" y="0" width="480" height="270" style="fill:rgb(100%,100%,100%);fill-opacity:1;stroke:none;"/>
<path style=" stroke:none;fill-rule:nonzero;fill:rgb(96.078431%,56.862745%,54.509804%);fill-opacity:1;" d="M 140.910156 149.257812 C 139.882812 149.574219 138.851562 149.8125 138.136719 150.6875 L 136.390625 151.082031 C 134.167969 152.753906 132.027344 155.132812 130.515625 157.433594 C 128.773438 160.058594 128.21875 162.203125 127.976562 165.300781 C 127.820312 166.570312 126.550781 170.859375 128.851562 170.699219 C 130.835938 170.621094 132.261719 166.089844 133.214844 164.660156 C 133.691406 163.867188 134.40625 163.3125 135.039062 162.675781 C 135.28125 163.472656 134.644531 164.503906 134.960938 165.21875 C 135.675781 166.726562 136.625 164.902344 137.105469 164.109375 C 138.292969 162.042969 139.167969 159.820312 140.359375 157.753906 C 141.628906 155.53125 143.371094 153.464844 144.167969 151.082031 C 145.277344 148.144531 143.054688 148.542969 140.910156 149.257812 "/>
<g clip-path="url(#clip1)" clip-rule="nonzero">
<path style=" stroke:none;fill-rule:nonzero;fill:rgb(96.078431%,56.862745%,54.509804%);fill-opacity:1;" d="M 213.261719 191.417969 C 217.765625 210.34375 220.714844 229.875 222.289062 249.378906 C 222.460938 251.773438 222.152344 259.363281 223.167969 263.835938 C 224.429688 269.390625 230.601562 272.289062 232.707031 268.195312 C 233.15625 267.324219 231.160156 265.441406 231.519531 263.707031 C 233.023438 256.421875 233.753906 247.902344 234.203125 239.042969 C 235 223.167969 234.878906 206.210938 236.632812 193.34375 L 203.027344 150.464844 C 205.460938 164.308594 210.09375 177.71875 213.261719 191.417969 "/>
</g>
<path style=" stroke:none;fill-rule:nonzero;fill:rgb(96.078431%,56.862745%,54.509804%);fill-opacity:1;" d="M 175.71875 195.113281 C 175.859375 201.3125 175.191406 207.472656 173.382812 213.347656 C 171.183594 221.179688 167.289062 229.160156 164.421875 236.921875 C 162.039062 243.382812 159.464844 248.484375 155.785156 254.472656 C 154.183594 256.820312 153.617188 260.457031 154.457031 263.535156 C 155.300781 266.613281 156.917969 269.058594 159.460938 267.320312 C 162.003906 265.578125 160.207031 262.949219 164.808594 257.738281 C 170.992188 250.34375 183.203125 237.292969 187.800781 229.050781 C 198.46875 211.382812 200.277344 191.738281 202.492188 171.464844 L 175.453125 162.726562 C 175.425781 173.261719 175.457031 183.453125 175.71875 195.113281 "/>
<path style=" stroke:none;fill-rule:nonzero;fill:rgb(96.078431%,56.862745%,54.509804%);fill-opacity:1;" d="M 232.96875 86.925781 C 232.96875 86.925781 225.394531 88.039062 222.722656 86.703125 C 221.78125 86.230469 221.261719 85.394531 220.972656 84.515625 C 233.65625 75.820312 229.996094 41.199219 215.359375 43.214844 L 218.003906 42.382812 C 205.792969 35.417969 185.832031 77.039062 208.351562 85.230469 C 207.863281 86.539062 207.074219 87.539062 205.800781 87.367188 C 202.460938 86.925781 197.335938 86.699219 196.445312 86.925781 L 215.820312 103.414062 L 232.96875 86.925781 "/>
<path style=" stroke:none;fill-rule:nonzero;fill:rgb(96.078431%,56.862745%,54.509804%);fill-opacity:1;" d="M 274.222656 83.621094 C 273.984375 82.484375 273.71875 80.886719 273.441406 79.761719 C 273.121094 78.464844 272.292969 77.375 271.871094 76.109375 C 271.453125 74.851562 270 73.65625 268.621094 73.949219 C 266.898438 74.3125 266.414062 76.589844 266.035156 78.015625 C 265.832031 78.773438 265.984375 79.6875 266.304688 80.597656 C 265.464844 80.398438 264.636719 80.222656 263.855469 80.074219 C 264.21875 79.277344 264.5 78.445312 264.660156 77.589844 C 264.804688 76.851562 265.539062 74.246094 264.132812 74.222656 C 263.546875 74.210938 262.824219 74.839844 262.367188 75.160156 C 259.996094 76.820312 258.425781 78.917969 257.84375 81.636719 C 257.84375 81.636719 257.878906 81.691406 257.9375 81.769531 C 257.832031 82.113281 257.78125 82.460938 257.851562 82.785156 C 258.132812 84.175781 257.925781 87.515625 262.585938 89.421875 C 266.339844 90.960938 270.785156 88.808594 272.730469 86.285156 C 273.882812 85.972656 274.53125 85.066406 274.222656 83.621094 "/>
<g clip-path="url(#clip2)" clip-rule="nonzero">
<path style=" stroke:none;fill-rule:nonzero;fill:rgb(96.862745%,56.470588%,75.294118%);fill-opacity:1;" d="M 349.257812 57.453125 C 349.183594 57.757812 349.132812 58.078125 349.078125 58.390625 C 348.34375 58.40625 347.207031 57.480469 346.8125 57.175781 C 346.613281 56.921875 346.417969 56.660156 346.210938 56.417969 C 344.292969 54.195312 342.621094 51.792969 341.101562 49.277344 C 335.582031 40.125 330.441406 30.6875 327.257812 20.4375 C 326.351562 17.515625 325.605469 14.546875 325.066406 11.535156 C 324.757812 9.804688 324.535156 8.050781 324.511719 6.289062 C 324.503906 5.976562 324.621094 4.859375 324.71875 3.691406 C 324.8125 3.101562 324.976562 2.386719 325.234375 2.078125 C 326.246094 2.511719 327.179688 3.363281 328.246094 4.433594 C 337.347656 13.539062 343.730469 23.84375 347.871094 35.867188 C 349.351562 40.164062 350.414062 44.660156 350.316406 49.226562 C 350.253906 51.929688 349.914062 54.832031 349.257812 57.453125 Z M 346.207031 26.1875 C 341.757812 17.160156 336.21875 9.167969 331.746094 4.195312 C 327.28125 -0.777344 324.0625 0.0585938 324.0625 0.0585938 C 323.917969 0.0703125 323.753906 0.121094 323.5625 0.222656 C 322.953125 0.554688 322.4375 1.730469 322.4375 1.730469 C 322.4375 1.730469 320.511719 3.582031 319.269531 4.769531 C 317.628906 6.328125 316.066406 7.972656 314.3125 9.40625 C 310.941406 12.152344 307.578125 14.90625 304.136719 17.566406 C 301.5625 19.554688 298.964844 21.511719 296.351562 23.441406 C 284.640625 32.117188 272.648438 40.433594 261.367188 49.679688 C 258.199219 52.273438 255.089844 54.9375 252.070312 57.710938 C 250.570312 59.085938 249.089844 60.480469 247.636719 61.910156 C 246.894531 62.632812 246.164062 63.367188 245.4375 64.105469 C 244.953125 64.601562 243.710938 65.476562 243.496094 66.125 C 242.636719 68.679688 243.433594 71.457031 244.621094 73.753906 C 245.132812 74.746094 245.8125 75.964844 247.035156 76.132812 C 248.675781 76.355469 250.316406 75.496094 251.785156 74.871094 C 253.890625 73.980469 256.066406 73.476562 258.28125 73.195312 C 259.148438 74.328125 259.917969 75.464844 260.589844 76.644531 C 261.109375 76.109375 261.707031 75.621094 262.359375 75.160156 C 262.820312 74.839844 263.542969 74.210938 264.128906 74.222656 C 265.542969 74.242188 264.804688 76.859375 264.660156 77.59375 C 264.390625 79.011719 263.828125 80.371094 263.027344 81.578125 C 263.027344 81.578125 263.035156 81.738281 262.882812 81.964844 C 263.222656 83.035156 263.503906 84.152344 263.734375 85.335938 C 264.433594 88.386719 264.128906 89.335938 267.195312 90.210938 C 267.945312 90.421875 268.699219 90.539062 269.421875 90.539062 C 271.640625 90.539062 273.609375 89.515625 274.660156 87.476562 C 274.539062 86.710938 274.394531 85.859375 274.210938 84.941406 C 273.945312 85.886719 273.058594 86.390625 271.847656 86.414062 C 271.296875 86.421875 270.816406 86.304688 270.386719 86.105469 C 269.402344 85.648438 268.660156 84.75 268 83.804688 C 267.035156 82.433594 265.558594 79.792969 266.035156 78.015625 C 266.414062 76.589844 266.894531 74.3125 268.621094 73.949219 C 269.222656 73.824219 269.835938 73.976562 270.371094 74.296875 C 270.078125 73.835938 269.761719 73.402344 269.429688 72.996094 C 269.921875 73.007812 270.414062 73.019531 270.902344 73.027344 C 277.589844 73.152344 284.277344 72.191406 290.921875 71.53125 C 304.820312 70.152344 318.671875 68.046875 332.304688 64.996094 C 336.136719 64.140625 339.953125 63.207031 343.738281 62.140625 C 344.648438 61.882812 345.554688 61.609375 346.464844 61.339844 C 347.839844 62.304688 349.453125 62.332031 351.882812 59.175781 C 356.007812 53.828125 350.664062 35.214844 346.207031 26.1875 "/>
</g>
<path style=" stroke:none;fill-rule:nonzero;fill:rgb(78.039216%,36.078431%,27.843137%);fill-opacity:1;" d="M 348.0625 32.335938 C 341.332031 15.457031 325.808594 0.957031 325.808594 0.957031 C 325.808594 0.957031 321.460938 0.230469 321.566406 7.375 C 321.671875 14.527344 343.402344 61.335938 348.265625 60.199219 C 353.132812 59.058594 350.949219 39.59375 348.0625 32.335938 "/>
<path style=" stroke:none;fill-rule:nonzero;fill:rgb(78.039216%,36.078431%,27.843137%);fill-opacity:1;" d="M 231.367188 48.117188 C 226.484375 40.730469 219.429688 35.261719 210.195312 36.980469 C 201.910156 38.519531 195.238281 44.179688 191.019531 51.285156 C 188.578125 55.414062 186.339844 60.070312 184.789062 64.609375 C 182.75 69.90625 179.90625 78.050781 183.15625 83.746094 C 186.351562 89.339844 194.757812 91.929688 201.777344 91.460938 L 196.445312 86.921875 C 197.335938 86.699219 202.460938 86.921875 205.800781 87.367188 C 207.074219 87.542969 207.863281 86.539062 208.351562 85.238281 C 197.710938 81.363281 196.554688 70.027344 199.585938 59.878906 C 205.910156 61.589844 215.964844 50.835938 218.914062 43.476562 C 230.507812 47.011719 232.558594 76.574219 220.972656 84.511719 C 221.261719 85.394531 221.78125 86.230469 222.722656 86.699219 C 224.773438 87.722656 229.703125 87.308594 231.890625 87.058594 C 233.472656 85.90625 234.964844 84.550781 236.050781 83.339844 C 238.488281 80.488281 238.082031 71.9375 238.082031 68.273438 C 238.082031 60.667969 235.484375 54.34375 231.367188 48.117188 "/>
<path style=" stroke:none;fill-rule:nonzero;fill:rgb(24.705882%,43.921569%,62.745098%);fill-opacity:1;" d="M 271 90.351562 C 269.824219 90.636719 268.515625 90.589844 267.199219 90.210938 C 266.816406 90.101562 266.496094 89.996094 266.214844 89.882812 C 265 90.023438 263.757812 89.902344 262.585938 89.421875 C 259.875 88.308594 258.804688 86.71875 258.347656 85.300781 L 258.3125 85.300781 C 258.789062 95.417969 260.023438 101.144531 258.050781 106.277344 C 255.953125 111.761719 246.703125 82.878906 227.726562 86.421875 L 214.53125 97.597656 L 200.675781 85.269531 C 188.015625 83.535156 172.476562 106.003906 165.570312 114.066406 C 153.488281 128.464844 143.570312 137.8125 133.214844 153.363281 C 134.9375 155.671875 138.390625 157.394531 140.695312 159.128906 C 151.625 148.179688 158.460938 148.761719 169.398438 137.824219 L 181.074219 121.191406 L 189.320312 108.546875 C 189.320312 130.613281 175.957031 153.34375 168.609375 174.074219 C 165.554688 182.46875 162.957031 191.304688 160.652344 200.195312 C 167.480469 202.933594 175.882812 203.089844 182.636719 203.492188 C 203.476562 204.796875 224.035156 204.105469 244.675781 201.273438 C 244.316406 179.761719 242.710938 158.40625 236.085938 137.964844 C 237.503906 129.613281 242.113281 114.640625 242.113281 114.640625 C 243.695312 124.128906 251.511719 131.996094 259.984375 132.632812 C 263.851562 132.929688 267.105469 130.777344 269.089844 125.828125 L 269.160156 125.589844 C 271.847656 119.75 274.191406 99.90625 271 90.351562 "/>
</g>
</svg>
