<!-- Generator: Adobe Illustrator 24.3.0, SVG Export Plug-In . SVG Version: 6.00 Build 0)  -->
<svg version="1.1" id="Layer_1" xmlns="http://www.w3.org/2000/svg" xmlns:xlink="http://www.w3.org/1999/xlink" x="0px" y="0px"
	 viewBox="0 0 1000 1000" style="enable-background:new 0 0 1000 1000;" xml:space="preserve">
<style type="text/css">
	.st0{fill:#FFC800;}
</style>
<circle class="st0" cx="500" cy="500" r="500"/>
<path d="M288.5,722.1c0,35-13,55.5-44.4,55.5h-21.8V667.7h24.4C275.5,667.7,288.5,690.7,288.5,722.1 M278.1,721.6
	c0-28.1-10.2-43.8-30.7-44.1h-14.6v90.1h9.8C267.3,767.4,278.1,753.6,278.1,721.6 M356.4,738.6c0,29.2-12.5,41.3-28.1,41.3
	c-15.6,0-28.1-12-28.1-41.3c0-29.3,12.5-41.3,28.1-41.3C343.9,697.3,356.4,709.3,356.4,738.6 M346.5,738.6
	c0-13.3-2.9-31.9-18.2-31.9c-15.3,0-18.2,18.6-18.2,31.9c0,13.3,2.9,31.9,18.2,31.9C343.6,770.5,346.5,751.9,346.5,738.6
	 M424.7,696.9v9.8H421c-2.8,0-4.6,0.1-7.1,1.7c2.9,4.8,4.3,10.3,4.3,16.1c0,15.1-10,26.8-23.7,26.8c-4.1,0-7.6-0.8-11.3-2.4
	c-2.2,2-6,4.5-6,8.3c0,9.9,46.8-2.5,46.8,27c0,5.8-1.7,20.4-29.8,20.4c-22.9,0-30-9.9-30-19.5c0-8.1,6.4-12.4,12.2-15.3
	c-4.2-1.8-8.8-5.2-8.8-10.9c0-6.9,4.8-9,8.8-14.3c-5.1-6.6-7.8-11.3-7.8-20.5c0-15.8,10.7-26.8,24.8-26.8c5.6,0,10.7,1.8,15.3,5.5
	C413.4,699,418.7,696.2,424.7,696.9 M373.8,784.5c0,10.7,14.2,11.3,21,11.3c7.1,0,19.7-1.5,19.7-12.3c0-8.2-11.7-9.2-17-9.6
	l-10.4-1.1C381.7,773.9,373.8,777.4,373.8,784.5 M408.7,724.5c0-10.2-5-18.8-14.9-18.8c-9.5,0-15.5,8.9-15.5,18.9
	c0,9.7,5.5,18.4,14.6,18.4C403.1,743,408.7,735.2,408.7,724.5 M443.1,718.2c0-7.9,6.1-11.6,12.6-11.6c7.4,0,12.1,3.8,16,10.3l7-6.1
	c-5.5-9-13.6-13.6-23.4-13.6c-11.6,0-21.5,8.2-21.5,21.6c0,28,37,18.6,37,38.3c0,8.9-6.5,13.3-13.7,13.3c-8.4,0-14.5-4.5-18.3-12.6
	l-7.9,5.5c5.7,10.9,14.9,16.4,26.2,16.4c13.2,0,23-9.3,23-24.6C480.1,729,443.1,737.3,443.1,718.2 M550.8,667.7h-71.4v18.7h25.8
	v91.5H525v-91.5h25.8V667.7z M567.9,712.4v-13.9H549v79.3h18.9V743c0-21.1,15-26.1,19.9-26.1c1.9,0,3.7,0.4,5.5,0.9v-21h-3.6
	C581,696.8,575.1,702.9,567.9,712.4 M642.7,753.1c-3.5,4.2-7.8,8.6-13.2,8.6c-8.1,0-7.7-9.9-7.7-16.3v-47.2h-18.7v55.6
	c0,19.3,10.8,24.5,18.5,24.5c7.8,0,15.1-4.3,21.1-9.8v8.1h18.7v-78.5h-18.7V753.1z M693.6,721.1c0-5.1,3.2-8.8,7.7-8.8
	c5.6,0,7.3,4,8.2,9.5l17.9-2.4c-2.2-13.7-12.2-22.5-24.7-22.5c-13.9,0-26.3,9.3-26.3,25.4c0,30.9,34.6,19.5,34.6,33.4
	c0,6.1-4.5,8.5-9.2,8.5c-5.7,0-8.4-5.4-8.8-11l-17.7,2.1c1.9,16.4,11.2,24.4,25.9,24.4c14.5,0,27.2-8.2,27.2-25.1
	C728.1,724.7,693.6,734.7,693.6,721.1 M776.6,716v-17.4H762v-19.8h-18.9v19.8h-8.8V716h8.8v39c0,17.3,9.7,24.6,21.4,24.6
	c4.1,0,8.2-1.1,12.1-2.4v-16c-2.3,1.6-4.3,3-7.5,3c-6.1,0-7.1-4-7.1-7.8V716H776.6z M341.3,359.3c-15.5,14.9-56.5,2.1-86.7-28.5
	c-30.2-30.6-63.3-0.4-69.9-20.5c-6.6-20.1,26.7-67.6,81.5-59.7c54.8,7.9,94.6-29.3,136.4-15.1c14.8,5,16.9,12.9,13,28.4
	c-3.5,13.8-20.5,44.5-44.3,54.6C347.4,328.7,356.8,344.3,341.3,359.3 M809.8,281.4c4-6.2,14.6-29.4-13.4-28.7
	c-23.9,0.6-32.8,0.9-50.4-13.1c-21-16.7-41.6-24.5-58.8-24.2c-14.5,0.2-26.3,7-35.2,13.1c-19,13.2-36.6,6.8-52.1,15.8
	c-21.5,12.6,9.8,22.8,19.4,47c5.1,13,9,30,9.6,44.5c0.6,13.8,8.6,17.8,20.7,2.3c20.1-25.8,30.2-36.5,91.3-26.3
	C771.8,317,799.2,298,809.8,281.4 M350.6,473.5c6.7-5.9,22.2-21.4,20-45.7c-2-22.4-12.4-49.6-13.3-59.7c-0.1-0.8-0.1-3.9,0-5.6
	c0.3-3.4,0.6-4.9,0.5-7c0-1-0.4-0.8-0.6-0.5c-10.3,22.2-0.6,40.3,2.4,67.6C362.6,450.5,343.9,479.5,350.6,473.5 M599.6,487.6
	c-1.5-10.1-5.7-24.2-52.1-24.7c-11.5-0.1-28.7,6-33.4,11.5c-4.7,5.5-9.7,9.5-7,16.5c2.7,7.1,21.8,15.6,13.6,18.4
	c-8.3,2.8-3.9,10.9,2.7,20.9c6.6,10,18.4,16.7,27.2,15.7c8.8-1,16.1-6.9,19.6-3.1c6.7,7.5,18.4-4.3,24.7-20.4
	c3.5-8.9,4.9-13.6,1.7-17.1c-1.4-1.6-2.2-3.8-2-4.8C595.1,497.3,601.9,503.4,599.6,487.6 M553.7,480.5c-4.1,7.4-34.9,9-26.5,2.4
	c6-4.7,14.1-10.2,20.1-9.7C551,473.5,555.3,477.8,553.7,480.5 M442.1,540.9c-6-13.4-17.6-15-27.2-24.9c-9.6-10-11.9-27-26.5-40.5
	c-5.5-5-18.5-29.2-7-0.4c7.9,19.7,15.4,34.4,27.4,48.1c5.5,6.3,13.9,8.2,20.1,17.6c15.6,23.8,29.6,30.1,41,29.1
	c3-0.3,5.8-1.9,0.1-3.2C462.1,564.8,450.3,559.1,442.1,540.9 M636.7,358.4c-0.7,11.1,0.5,24.5-4.4,32.9c-4.9,8.4-4.9,23.3-4.3,28.1
	c0.5,4.8,1.1-1.2,4.3-10.2c3.3-8.9,8.2-14.3,10.3-24.5C644.9,374.6,637.3,350.1,636.7,358.4 M605.9,342.9c-9.3-1.2-17.8,2.2-20.1,14
	c-2.1,10.6,5.1,29,5,35c0,1.1-0.5,1.9-0.5,2.9c0,0.5,0.1,0.9,0.3,1.1c1.3,2.3,5.8-1.9,11.8-3.4c5.4-1.5,20.1-7.1,22-25.8
	C625.5,355.5,615.3,344.1,605.9,342.9 M596,367.4c-1.7-0.9-4.4-3.3-5.5-8.9c1.1-4.5,5-8.9,9.4-11.6c0,0,4.5,5.8,5.3,7.2
	C603.3,355.4,599.6,359.6,596,367.4 M465.1,238.5c35.7-2.8,60.6,1.9,79.7,7.4c19.2,5.4,30.9,15.1,29.6,12.1
	c-7.6-10.8-22-16.2-36.3-20.9c-14.4-4.7-36.4-6-26.2-9.8c5.5-2,28.6,0.2,17.2-2.2c-11.4-2.3-40.8-0.5-64.5,8.6
	C452.4,238.3,454.8,239.2,465.1,238.5 M604.9,554.3c-2.4,10.9-8,16.2-13.5,19.1c-1.1,0.6-2.7,1.5-5,1.6c-7,0.6-14.3-2.3-18.3-6.7
	c-6.4-7.2-5.7-15.1-9.4-11.6c-3.4,3.3-6.4,7.8-16.4,14.4c-19.7,12.9-42.7,4.4-52.2-0.7c-1.3-0.7-2-1.3-2.3-1.4
	c-3.3-2.1-4.7,1.1-0.4,5.4c12.8,12.5,32.3,16.4,46,13.8c6.8-1.3,15.1-1.9,22.6-2.2c7.5-0.3,14.2-0.1,17.9,0.1
	c5.5,0.5,10.4-0.9,12.7-1.5c5.6-1.5,12.4-4.8,16-10.1c12.4-17.9,10.2-33.7,8.6-37.4C608.9,531.1,606.2,548.1,604.9,554.3
	 M472.7,369.4c-0.4-1.5-0.6-3.6-0.8-6.1c-0.5-8.1-1.4-20.4-15.2-26.8c-17.2-7.9-33.6,6.8-38.2,16.1c-1.7,3.4-2.5,7.2-2.5,11.3
	c0,1,0.1,2.1,0.2,3.1c0.7,7.3,5.5,14.9,12.1,19.5c5.4,3.7,11.3,4.9,16.7,3.5c9.6-2.5,16.9-3.4,21.7-3.9l4.1-0.5
	c1.1-0.2,1.9-0.8,2.6-1.7C475.4,380.5,473.8,373.3,472.7,369.4 M432.2,366.9c-2.1-0.6-5.6-2.6-8-7.9c0.4-4.5,3.8-9.3,8.2-12.5
	c0,0,6.2,5,7.4,6.2C438,354.3,434.6,358.8,432.2,366.9 M461.5,380.6c-5.3,3.9-5.8-6.5-1.9-13.7c1.4-2.6,2.4-8.8,2.3-12.2
	c0-1.2-0.5-2.8-0.4-4c0.2-0.9,0.7-1.2,1.5,0C466.6,356.3,466.8,376.7,461.5,380.6 M421.8,594.7c-55.5-25.3-92.9-73.5-93.7-120.5
	c-1.8,4.1-4,11-4.5,15.5c-0.3,3-0.5,6-0.5,8.9c0,42.8,35,84.4,93.9,109.3c25.5,10.8,52.3,11.8,60.2,6.5c-2.4-0.9-5.5-1.5-13.1-3.8
	C462.7,610.2,433.7,600.2,421.8,594.7"/>
</svg>
